<svg width="16" height="16" viewBox="0 0 16 16" fill="none" xmlns="http://www.w3.org/2000/svg">
<path d="M10.8855 9.58764C10.6589 9.36111 10.2882 9.36111 10.0823 9.58764L8.7849 10.8645C8.18768 11.4617 6.84908 11.0498 5.7782 9.97892C4.70732 8.90804 4.29544 7.54885 4.89267 6.97222L6.16948 5.69541C6.39602 5.46887 6.39602 5.09819 6.16948 4.89225L3.22457 1.92674C2.99803 1.7002 2.62734 1.7002 2.42141 1.92674L1.55647 2.79168C-0.173417 4.50096 0.979838 8.45498 4.15129 11.6058C7.30214 14.7567 11.2562 15.9305 12.986 14.2007L13.851 13.3357C14.0775 13.1092 14.0775 12.7385 13.851 12.5326L10.8855 9.58764Z" stroke="white" stroke-width="1.5" stroke-miterlimit="10" stroke-linecap="round" stroke-linejoin="round"/>
<path d="M7.71387 1C11.6061 1 14.757 4.15086 14.757 8.04309" stroke="white" stroke-width="1.5" stroke-miterlimit="10" stroke-linecap="round" stroke-linejoin="round"/>
<path d="M7.71387 3.32709C10.3087 3.32709 12.4299 5.44825 12.4299 8.04308" stroke="white" stroke-width="1.5" stroke-miterlimit="10" stroke-linecap="round" stroke-linejoin="round"/>
</svg>
