<svg width="28" height="29" viewBox="0 0 28 29" fill="none" xmlns="http://www.w3.org/2000/svg">
<path d="M21.21 10.2082L21.7507 9.66748C22.6465 8.77165 24.099 8.77165 24.9948 9.66748C25.8906 10.5633 25.8906 12.0157 24.9948 12.9116L24.4541 13.4522M21.21 10.2082C21.21 10.2082 21.2776 11.3571 22.2914 12.3709C23.3052 13.3846 24.4541 13.4522 24.4541 13.4522M21.21 10.2082L16.2393 15.1789C15.9026 15.5156 15.7343 15.6839 15.5895 15.8695C15.4187 16.0885 15.2723 16.3254 15.1529 16.576C15.0516 16.7885 14.9763 17.0144 14.8257 17.4661L14.3437 18.9123L14.1877 19.3802M24.4541 13.4522L19.4834 18.423C19.1467 18.7596 18.9784 18.928 18.7928 19.0727C18.5738 19.2435 18.3369 19.3899 18.0862 19.5094C17.8737 19.6107 17.6479 19.686 17.1962 19.8365L15.75 20.3186L15.2821 20.4746M15.2821 20.4746L14.8142 20.6305C14.592 20.7046 14.3469 20.6468 14.1812 20.4811C14.0155 20.3154 13.9577 20.0703 14.0318 19.848L14.1877 19.3802M15.2821 20.4746L14.1877 19.3802" stroke="white" stroke-width="1.5"/>
<path d="M9.33301 15.9956H12.2497" stroke="white" stroke-width="1.5" stroke-linecap="round"/>
<path d="M9.33301 11.3291H16.9163" stroke="white" stroke-width="1.5" stroke-linecap="round"/>
<path d="M9.33301 20.6626H11.083" stroke="white" stroke-width="1.5" stroke-linecap="round"/>
<path d="M23.1332 4.52943C21.7663 3.1626 19.5664 3.1626 15.1667 3.1626H12.8333C8.43356 3.1626 6.23367 3.1626 4.86684 4.52943C3.5 5.89627 3.5 8.09616 3.5 12.4959V17.1626C3.5 21.5624 3.5 23.7623 4.86684 25.1291C6.23367 26.4959 8.43356 26.4959 12.8333 26.4959H15.1667C19.5664 26.4959 21.7663 26.4959 23.1332 25.1291C24.2334 24.0288 24.448 22.3888 24.4899 19.4959" stroke="white" stroke-width="1.5" stroke-linecap="round"/>
</svg>
