<svg width="48" height="48" viewBox="0 0 48 48" fill="none" xmlns="http://www.w3.org/2000/svg">
<circle cx="23.999" cy="12" r="8" fill="#561E05"/>
<path opacity="0.5" d="M36.1885 30.0623C35.3389 30 34.2965 30 32.999 30C29.6992 30 28.0493 30 27.0242 31.0251C25.999 32.0503 25.999 33.7002 25.999 37C25.999 39.3326 25.999 40.8408 26.3611 41.8866C25.5932 41.9612 24.8041 42 23.999 42C16.267 42 9.99902 38.4183 9.99902 34C9.99902 29.5817 16.267 26 23.999 26C29.2259 26 33.7837 27.6368 36.1885 30.0623Z" fill="#561E05"/>
<path fill-rule="evenodd" clip-rule="evenodd" d="M32.999 44C29.6992 44 28.0493 44 27.0242 42.9749C25.999 41.9497 25.999 40.2998 25.999 37C25.999 33.7002 25.999 32.0503 27.0242 31.0251C28.0493 30 29.6992 30 32.999 30C36.2989 30 37.9488 30 38.9739 31.0251C39.999 32.0503 39.999 33.7002 39.999 37C39.999 40.2998 39.999 41.9497 38.9739 42.9749C37.9488 44 36.2989 44 32.999 44ZM34.1657 33.8889C34.1657 33.2446 33.6434 32.7222 32.999 32.7222C32.3547 32.7222 31.8324 33.2446 31.8324 33.8889V35.8333H29.8879C29.2436 35.8333 28.7212 36.3557 28.7212 37C28.7212 37.6443 29.2436 38.1667 29.8879 38.1667H31.8324V40.1111C31.8324 40.7554 32.3547 41.2778 32.999 41.2778C33.6434 41.2778 34.1657 40.7554 34.1657 40.1111V38.1667H36.1101C36.7545 38.1667 37.2768 37.6443 37.2768 37C37.2768 36.3557 36.7545 35.8333 36.1101 35.8333H34.1657V33.8889Z" fill="#561E05"/>
</svg>
