<svg width="370" height="339" viewBox="0 0 370 339" fill="none" xmlns="http://www.w3.org/2000/svg">
<g clip-path="url(#clip0_812_577)">
<path d="M161.5 39.8332C161.5 18.3332 144 0.833189 122.5 0.833188C101 0.833186 83.5 18.3332 83.5 39.8332L83.5 248.033L161.5 248.033" fill="#092A45"/>
<path d="M84 278.833L370 278.833L370 40.833L84 40.833L84 278.833Z" fill="#0B4B81"/>
<path d="M123.838 126.166C123.838 122.161 120.435 118.833 116.197 118.833L77.8026 118.833C73.565 118.833 70.1621 122.099 70.1621 126.166L70.1621 290.43C70.1621 291.534 69.2667 292.43 68.1621 292.43L61.3645 292.43C59.6532 292.43 58.7323 294.439 59.8496 295.735L95.4851 337.076C96.283 338.001 97.717 338.001 98.5149 337.076L134.15 295.735C135.268 294.439 134.347 292.43 132.635 292.43L125.838 292.43C124.733 292.43 123.838 291.534 123.838 290.43L123.838 126.166Z" fill="#0B4B81"/>
<path d="M70 181.833L124 181.833L124 169.833L70 169.833L70 181.833Z" fill="#1164AB"/>
<path d="M70 202.833L124 202.833L124 190.833L70 190.833L70 202.833Z" fill="#1164AB"/>
<path d="M70 223.833L124 223.833L124 211.833L70 211.833L70 223.833Z" fill="#1164AB"/>
<path d="M83.5002 130.933C83.5002 137.533 88.8002 142.833 95.4002 142.833C101.9 142.833 107.3 137.534 107.3 130.934C107.3 124.434 112.4 118.833 119 118.833L83.6002 118.833L83.6002 130.933L83.5002 130.933Z" fill="#092A45"/>
<path d="M0.000588839 39.8335C0.000590718 18.3335 17.5006 0.833487 39.0006 0.833489L122.601 0.833496C101.101 0.833494 83.6006 18.3335 83.6006 39.8335L83.6006 119.034L83.6006 130.933C83.6006 137.533 88.9006 142.833 95.5006 142.833L11.9006 142.833C5.40057 142.833 0.000580297 137.533 0.000580874 130.933L0.000581915 119.033L0.000588839 39.8335Z" fill="#0B4B81"/>
<path d="M9.09961 75.8335C9.09961 93.2335 23.1996 107.333 40.5996 107.333C57.9996 107.333 72.0996 93.2335 72.0996 75.8335C72.0996 58.4335 57.9996 44.3335 40.5996 44.3335C23.1996 44.3335 9.09961 58.4335 9.09961 75.8335Z" fill="white"/>
</g>
<defs>
<clipPath id="clip0_812_577">
<rect width="370" height="338" fill="white" transform="translate(370 338.833) rotate(-180)"/>
</clipPath>
</defs>
</svg>
