<svg width="1728" height="183" viewBox="0 0 1728 183" fill="none" xmlns="http://www.w3.org/2000/svg">
<g clip-path="url(#clip0_802_274)">
<path fill-rule="evenodd" clip-rule="evenodd" d="M-0.000976562 1.23511V709.42H1728V50.7158C1696.18 39.4989 1654.52 43.6969 1616.52 65.0703C1592.09 78.8056 1572.95 97.5144 1560.54 117.895C1547.71 111.24 1528.93 107.041 1508 107.041C1472.14 107.041 1442.59 119.364 1438.49 135.251C1401.87 113.606 1356.21 109.194 1314.93 125.759C1275.7 62.4116 1192.96 40.8002 1127.22 77.7758C1103.82 90.9341 1085.65 109.785 1073.46 131.604C1037.48 119.905 996.851 122.735 961.217 142.776C942.936 153.057 927.844 166.813 916.306 182.745C913.377 170.148 908.633 157.753 901.976 145.915C864.121 78.606 778.715 54.815 711.217 92.7763C687.405 106.168 669.002 125.457 656.818 147.769C636.258 113.609 595.61 98.4479 558.516 108.871C531.664 80.4514 487.911 72.8101 452.199 92.8948C437.543 101.137 426.174 112.962 418.577 126.648C392.647 104.675 355.208 99.2435 323.271 115.091C285.882 68.7304 219.297 54.8235 165.516 85.0703C161.433 87.3663 157.53 89.8575 153.811 92.5256C152.512 89.9463 151.147 87.3804 149.713 84.8307C115.754 24.4485 54.1536 -7.99795 -0.000976562 1.23511ZM1479.36 168.248C1478.71 168.692 1478.09 169.144 1477.48 169.603C1476.92 168.881 1476.36 168.166 1475.79 167.458C1476.96 167.736 1478.15 168 1479.36 168.248Z" fill="white"/>
</g>
<defs>
<clipPath id="clip0_802_274">
<rect width="1728" height="183" fill="white"/>
</clipPath>
</defs>
</svg>
