<svg width="371" height="338" viewBox="0 0 371 338" fill="none" xmlns="http://www.w3.org/2000/svg">
<g clip-path="url(#clip0_812_577)">
<path d="M161.968 39.0002C161.968 17.5002 144.468 0.000181576 122.968 0.000179696C101.468 0.000177816 83.9678 17.5002 83.9678 39.0002L83.9678 247.2L161.968 247.2" fill="#9C580B"/>
<path d="M84.4677 278L370.468 278L370.468 40L84.4678 40L84.4677 278Z" fill="#C46F0E"/>
<path d="M124.306 125.333C124.306 121.328 120.903 118 116.665 118L78.2703 118C74.0328 118 70.6299 121.266 70.6299 125.333L70.6299 289.597C70.6299 290.701 69.7344 291.597 68.6299 291.597L61.8323 291.597C60.1209 291.597 59.2 293.606 60.3174 294.902L95.9529 336.243C96.7507 337.168 98.1848 337.168 98.9826 336.243L134.618 294.902C135.735 293.606 134.815 291.597 133.103 291.597L126.306 291.597C125.201 291.597 124.306 290.701 124.306 289.597L124.306 125.333Z" fill="#FF9012"/>
<path d="M70.4678 181L124.468 181L124.468 169L70.4678 169L70.4678 181Z" fill="#FFA142"/>
<path d="M70.4678 202L124.468 202L124.468 190L70.4678 190L70.4678 202Z" fill="#FFA142"/>
<path d="M70.4678 223L124.468 223L124.468 211L70.4678 211L70.4678 223Z" fill="#FFA142"/>
<path d="M83.968 130.1C83.968 136.7 89.268 142 95.868 142C102.368 142 107.768 136.7 107.768 130.1C107.768 123.6 112.868 118 119.468 118L84.068 118L84.068 130.1L83.968 130.1Z" fill="#9C580B"/>
<path d="M0.468362 39.0005C0.468364 17.5005 17.9684 0.000479093 39.4684 0.000480973L123.068 0.000488281C101.568 0.000486402 84.0684 17.5005 84.0684 39.0005L84.0684 118.2L84.0684 130.1C84.0684 136.7 89.3684 142 95.9684 142L12.3683 142C5.86835 142 0.468354 136.7 0.468354 130.1L0.468355 118.2L0.468362 39.0005Z" fill="#FF9012"/>
<path d="M9.56739 75.0005C9.56738 92.4005 23.6674 106.5 41.0674 106.5C58.4674 106.5 72.5674 92.4005 72.5674 75.0005C72.5674 57.6005 58.4674 43.5005 41.0674 43.5005C23.6674 43.5005 9.56739 57.6005 9.56739 75.0005Z" fill="white"/>
</g>
<defs>
<clipPath id="clip0_812_577">
<rect width="370" height="338" fill="white" transform="translate(370.468 338) rotate(-180)"/>
</clipPath>
</defs>
</svg>
