<svg width="33" height="34" viewBox="0 0 33 34" fill="none" xmlns="http://www.w3.org/2000/svg">
<g clip-path="url(#clip0_586_5425)">
<path d="M17.9375 1.5C17.9375 0.429948 17.0701 -0.4375 16 -0.4375C14.9299 -0.4375 14.0625 0.429948 14.0625 1.5V2.31823C9.85055 3.07239 6.3125 6.23682 6.3125 10.5417C6.3125 15.4943 10.9955 18.9375 16 18.9375C19.5559 18.9375 21.8125 21.2773 21.8125 23.4583C21.8125 25.6394 19.5559 27.9792 16 27.9792C12.4441 27.9792 10.1875 25.6394 10.1875 23.4583C10.1875 22.3883 9.32005 21.5208 8.25 21.5208C7.17995 21.5208 6.3125 22.3883 6.3125 23.4583C6.3125 27.7632 9.85055 30.9276 14.0625 31.6818V32.5C14.0625 33.57 14.9299 34.4375 16 34.4375C17.0701 34.4375 17.9375 33.57 17.9375 32.5V31.6818C22.1494 30.9276 25.6875 27.7632 25.6875 23.4583C25.6875 18.5057 21.0045 15.0625 16 15.0625C12.4441 15.0625 10.1875 12.7227 10.1875 10.5417C10.1875 8.36064 12.4441 6.02083 16 6.02083C19.5559 6.02083 21.8125 8.36064 21.8125 10.5417C21.8125 11.6117 22.6799 12.4792 23.75 12.4792C24.82 12.4792 25.6875 11.6117 25.6875 10.5417C25.6875 6.23682 22.1494 3.07239 17.9375 2.31823V1.5Z" fill="#561E05"/>
</g>
<defs>
<clipPath id="clip0_586_5425">
<rect width="33" height="34" fill="white"/>
</clipPath>
</defs>
</svg>
