<svg width="48" height="48" viewBox="0 0 48 48" fill="none" xmlns="http://www.w3.org/2000/svg">
<path opacity="0.5" d="M8.16462 21.7885C9.04245 17.1068 9.48136 14.7659 11.1477 13.3829C12.8141 12 15.1957 12 19.9591 12H28.0409C32.8042 12 35.1859 12 36.8522 13.3829C38.5186 14.7659 38.9575 17.1068 39.8353 21.7885L41.3353 29.7885C42.5697 36.3719 43.1869 39.6636 41.3875 41.8318C39.588 44 36.239 44 29.5409 44H18.4591C11.761 44 8.4119 44 6.61247 41.8318C4.81304 39.6636 5.43023 36.3719 6.66462 29.7885L8.16462 21.7885Z" fill="#561E05"/>
<path d="M19.499 10C19.499 7.51472 21.5137 5.5 23.999 5.5C26.4843 5.5 28.499 7.51472 28.499 10V12C28.499 12 28.499 12 28.499 12C29.631 12.0004 30.6227 12.0035 31.4987 12.0298C31.4989 12.0199 31.499 12.0099 31.499 12V10C31.499 5.85786 28.1412 2.5 23.999 2.5C19.8569 2.5 16.499 5.85786 16.499 10V12C16.499 12.01 16.4991 12.0199 16.4993 12.0298C17.3753 12.0035 18.367 12.0004 19.499 12C19.499 12 19.499 12.0001 19.499 12V10Z" fill="#561E05"/>
<path d="M31.1703 23.9371C31.6878 23.2902 31.583 22.3463 30.9361 21.8288C30.2892 21.3112 29.3452 21.4161 28.8277 22.063L21.874 30.7537L19.0597 27.9394C18.4739 27.3536 17.5241 27.3536 16.9384 27.9394C16.3526 28.5252 16.3526 29.4749 16.9384 30.0607L20.9384 34.0607C21.2401 34.3624 21.656 34.5214 22.082 34.4978C22.508 34.4742 22.9038 34.2703 23.1703 33.9371L31.1703 23.9371Z" fill="#561E05"/>
</svg>
