<svg width="48" height="48" viewBox="0 0 48 48" fill="none" xmlns="http://www.w3.org/2000/svg">
<path d="M16.8446 41.2363C20.3558 43.0789 22.1115 44.0002 24 44.0002V24.0002L5.27603 14.1455C5.24847 14.1898 5.22139 14.2345 5.19479 14.2797C4 16.3087 4 18.8336 4 23.8833V24.1172C4 29.1669 4 31.6917 5.19479 33.7207C6.38959 35.7498 8.54125 36.8789 12.8446 39.1372L16.8446 41.2363Z" fill="#561E05"/>
<path opacity="0.7" d="M35.1548 8.86304L31.1548 6.76393C27.6435 4.92131 25.8879 4 23.9994 4C22.1108 4 20.3552 4.92131 16.8439 6.76393L12.8439 8.86304C8.63642 11.071 6.48582 12.1996 5.27539 14.1453L23.9994 24L42.7233 14.1453C41.5129 12.1996 39.3623 11.071 35.1548 8.86304Z" fill="#561E05"/>
<path opacity="0.5" d="M42.8052 14.2797C42.7786 14.2345 42.7515 14.1898 42.724 14.1455L24 24.0002V44.0002C25.8885 44.0002 27.6442 43.0789 31.1554 41.2363L35.1554 39.1372C39.4587 36.8789 41.6104 35.7498 42.8052 33.7207C44 31.6917 44 29.1669 44 24.1172V23.8833C44 18.8336 44 16.3087 42.8052 14.2797Z" fill="#561E05"/>
<path d="M12.6467 8.96763C12.7123 8.93317 12.7785 8.89844 12.8452 8.86344L15.8323 7.2959L34.0338 17.3068L42.0812 13.283C42.3566 13.5949 42.596 13.9235 42.8058 14.2799C43.105 14.7879 43.3293 15.327 43.4974 15.9291L35.5006 19.9275V26.0004C35.5006 26.8288 34.8291 27.5004 34.0006 27.5004C33.1722 27.5004 32.5006 26.8288 32.5006 26.0004V21.4275L25.5006 24.9275V43.8084C24.9868 43.9364 24.4983 44.0004 24.0006 44.0004C23.5029 44.0004 23.0144 43.9364 22.5006 43.8084V24.9275L4.50391 15.9291C4.67201 15.327 4.89626 14.7879 5.19542 14.2799C5.40528 13.9235 5.64465 13.5949 5.92001 13.283L24.0006 22.3233L30.7731 18.9371L12.6467 8.96763Z" fill="#561E05"/>
</svg>
