<svg width="260" height="222" viewBox="0 0 260 222" fill="none" xmlns="http://www.w3.org/2000/svg">
<g clip-path="url(#clip0_601_145)">
<path d="M153.525 173.411H135.318V158.743H153.525C157.254 158.743 157.061 158.798 157.558 161.951C158.194 166.091 158.332 166.091 157.558 170.204C156.95 173.356 157.254 173.411 153.525 173.411Z" fill="#F2CE90"/>
<path d="M153.525 158.743H135.318V173.411H148.303C147.53 161.238 153.525 158.743 153.525 158.743Z" fill="#FFE4E7"/>
<path d="M156.067 173.439C157.287 173.439 158.277 170.149 158.277 166.091C158.277 162.033 157.287 158.743 156.067 158.743C154.846 158.743 153.856 162.033 153.856 166.091C153.856 170.149 154.846 173.439 156.067 173.439Z" fill="#FFF6F7"/>
<path d="M157.171 166.091C157.171 169.271 156.674 171.821 156.066 171.821C155.458 171.821 154.961 169.244 154.961 166.091C154.961 162.938 155.458 160.361 156.066 160.361C156.674 160.333 157.171 162.91 157.171 166.091Z" fill="#EEA916"/>
<path d="M153.525 47.9507H135.318V62.6188H153.525C157.254 62.6188 157.061 62.564 157.558 59.411C158.194 55.2711 158.332 55.2711 157.558 51.1585C156.95 48.0055 157.254 47.9507 153.525 47.9507Z" fill="#F2CE90"/>
<path d="M153.525 62.6188H135.318V47.9507H148.303C147.53 60.1239 153.525 62.6188 153.525 62.6188Z" fill="#FFE4E7"/>
<path d="M156.067 62.6184C157.287 62.6184 158.277 59.3287 158.277 55.2706C158.277 51.2126 157.287 47.9229 156.067 47.9229C154.846 47.9229 153.856 51.2126 153.856 55.2706C153.856 59.3287 154.846 62.6184 156.067 62.6184Z" fill="#FFF6F7"/>
<path d="M157.171 55.2707C157.171 52.0903 156.674 49.5405 156.066 49.5405C155.458 49.5405 154.961 52.1177 154.961 55.2707C154.961 58.4237 155.458 61.0009 156.066 61.0009C156.674 61.0283 157.171 58.4511 157.171 55.2707Z" fill="#EEA916"/>
<path d="M14.7806 110.681L0.63542 76.053C0.33152 75.3128 0.884065 74.4902 1.68526 74.4902H5.99511C11.0233 74.4902 15.7752 76.711 18.9799 80.5494L44.176 110.653H14.7806V110.681Z" fill="#EEA916"/>
<path d="M14.7806 110.681L0.63542 145.308C0.33152 146.049 0.884065 146.871 1.68526 146.871H5.99511C11.0233 146.871 15.7752 144.65 18.9799 140.812L44.176 110.708H14.7806V110.681Z" fill="#EEA916"/>
<path d="M171.261 96.9174L124.074 101.003L106.835 15.6256L104.486 3.94589C104.072 1.94444 105.592 0.0800781 107.636 0.0800781C111.642 0.0800781 115.372 2.1912 117.416 5.64575L132.114 30.5405L171.261 96.9174Z" fill="#A27922"/>
<path d="M119.902 11.3276L164.244 98.7334L171.096 98.1303L131.948 31.7534L119.902 11.3276Z" fill="#866318"/>
<path d="M120.067 81.0977L124.101 101.002L171.288 96.9173L162.972 82.8249C148.551 81.975 132.693 81.4267 120.067 81.0977Z" fill="#846117"/>
<path d="M132.114 30.5405C121.698 19.6285 112.25 16.4755 106.835 15.6256L104.486 3.94589C104.072 1.94444 105.592 0.0800781 107.636 0.0800781C111.642 0.0800781 115.372 2.1912 117.416 5.64575L132.114 30.5405Z" fill="#EEA916"/>
<path d="M171.261 124.444L124.073 120.359L106.806 205.736L104.458 217.416C104.044 219.417 105.591 221.281 107.635 221.281C111.641 221.281 115.371 219.17 117.415 215.716L132.113 190.821L171.261 124.444Z" fill="#A27922"/>
<path d="M119.902 212.46L164.244 125.054L171.096 125.657L131.948 192.034L119.902 212.46Z" fill="#866318"/>
<path d="M120.067 140.264L124.101 120.359L171.288 124.444L162.945 138.536C148.551 139.386 132.693 139.907 120.067 140.264Z" fill="#846117"/>
<path d="M132.113 190.821C121.697 201.733 112.249 204.886 106.834 205.736L104.485 217.415C104.071 219.417 105.618 221.281 107.663 221.281C111.669 221.281 115.398 219.17 117.443 215.716L132.113 190.821Z" fill="#EEA916"/>
<path d="M229.444 91.0503C207.094 85.0185 157.006 87.1845 117.471 89.2682C53.4587 92.6405 14.8082 102.703 3.48103 106.02C1.40899 106.623 0 108.515 0 110.681C0 112.819 1.40899 114.711 3.48103 115.342C14.7806 118.659 53.4587 128.721 117.471 132.094C157.033 134.177 208.254 136.371 230.605 130.312C250.248 124.993 260.166 120.99 260 110.681C260.166 100.372 249.087 96.3692 229.444 91.0503Z" fill="#412E04"/>
<path d="M228.09 95.3545C225.549 94.5045 223.615 97.7123 225.604 99.4945C229.472 102.976 233.478 107.363 233.478 110.681C233.478 113.998 229.472 118.385 225.604 121.867C223.615 123.649 225.521 126.857 228.09 126.007C235.218 123.649 239.721 118.988 242.291 115.424C244.335 112.6 244.363 108.816 242.318 105.992C239.777 102.401 235.246 97.7123 228.09 95.3545Z" fill="#C3A064"/>
<path d="M38.6223 113.231H9.8623C8.45331 113.231 7.29297 112.079 7.29297 110.681C7.29297 109.283 8.45331 108.131 9.8623 108.131H38.6223C40.0313 108.131 41.1916 109.283 41.1916 110.681C41.1916 112.079 40.0313 113.231 38.6223 113.231Z" fill="#F2CE90"/>
</g>
<defs>
<clipPath id="clip0_601_145">
<rect width="260" height="221.201" fill="white" transform="translate(0 0.0800781)"/>
</clipPath>
</defs>
</svg>
