<svg width="2001" height="1126" viewBox="0 0 2001 1126" fill="none" xmlns="http://www.w3.org/2000/svg">
<path d="M50.3984 50.1377L1290.4 50.1377C1373.24 50.1377 1440.4 117.295 1440.4 200.138V421.59C1440.4 504.432 1373.24 571.59 1290.4 571.59H468.898C386.056 571.59 318.898 638.747 318.898 721.59V925.138C318.898 1007.98 386.056 1075.14 468.898 1075.14H1950.4" stroke="#C89937" stroke-width="100" stroke-linecap="round"/>
<path d="M50.3984 50.1377L1290.4 50.1377C1373.24 50.1377 1440.4 117.295 1440.4 200.138V421.59C1440.4 504.432 1373.24 571.59 1290.4 571.59H468.898C386.056 571.59 318.898 638.747 318.898 721.59V925.138C318.898 1007.98 386.056 1075.14 468.898 1075.14H1950.4" stroke="#FFFBF1" stroke-width="5" stroke-linecap="round"/>
</svg>
