<svg width="48" height="48" viewBox="0 0 48 48" fill="none" xmlns="http://www.w3.org/2000/svg">
<path d="M28.5 37.9998H31.5C36.1349 37.9891 38.6149 37.8751 40.4446 36.6526C41.3181 36.0689 42.0681 35.3189 42.6518 34.4454C44 32.4276 44 29.6187 44 24.0009C44 18.383 44 15.5741 42.6518 13.5563C42.0681 12.6828 41.3181 11.9328 40.4446 11.3491C38.6149 10.1266 36.1348 10.0126 31.5 10.002H28.5V18H30C33.3137 18 36 20.6863 36 24C36 27.3137 33.3137 30 30 30H28.5V37.9998Z" fill="#561E05"/>
<path d="M19.5 37.9998V30H18C14.6863 30 12 27.3137 12 24C12 20.6863 14.6863 18 18 18H19.5V10.002H16.5C11.8651 10.0126 9.38506 10.1266 7.55544 11.3491C6.68192 11.9328 5.93191 12.6828 5.34824 13.5563C4 15.5741 4 18.383 4 24.0009C4 29.6187 4 32.4276 5.34824 34.4454C5.93191 35.3189 6.68192 36.0689 7.55544 36.6526C9.38506 37.8751 11.8652 37.9891 16.5 37.9998H19.5Z" fill="#561E05"/>
<path opacity="0.5" d="M19.5 38L28.5 38V10H19.5V38Z" fill="#561E05"/>
</svg>
