<svg width="370" height="338" viewBox="0 0 370 338" fill="none" xmlns="http://www.w3.org/2000/svg">
<g clip-path="url(#clip0_586_5390)">
<path d="M161.5 39.0002C161.5 17.5002 144 0.000181576 122.5 0.000179696C101 0.000177816 83.5 17.5002 83.5 39.0002L83.5 247.2L161.5 247.2" fill="#8E3212"/>
<path d="M84 281.5L370 281.5L370 43.5005L84 43.5005L84 281.5Z" fill="#C74518"/>
<path d="M123.838 125.333C123.838 121.328 120.435 118 116.197 118L77.8026 118C73.565 118 70.1621 121.266 70.1621 125.333L70.1621 289.597C70.1621 290.701 69.2667 291.597 68.1621 291.597L61.3645 291.597C59.6532 291.597 58.7323 293.606 59.8496 294.902L95.4851 336.243C96.283 337.168 97.717 337.168 98.5149 336.243L134.15 294.902C135.268 293.606 134.347 291.597 132.635 291.597L125.838 291.597C124.733 291.597 123.838 290.701 123.838 289.597L123.838 125.333Z" fill="#DE653B"/>
<path d="M70 181L124 181L124 169L70 169L70 181Z" fill="#EC7850"/>
<path d="M70 202L124 202L124 190L70 190L70 202Z" fill="#EC7850"/>
<path d="M70 223L124 223L124 211L70 211L70 223Z" fill="#EC7850"/>
<path d="M83.5002 130.1C83.5002 136.7 88.8002 142 95.4002 142C101.9 142 107.3 136.7 107.3 130.1C107.3 123.6 112.4 118 119 118L83.6002 118L83.6002 130.1L83.5002 130.1Z" fill="#8E3212"/>
<path d="M0.000588839 39.0005C0.000590718 17.5005 17.5006 0.000479093 39.0006 0.000480973L122.601 0.000488281C101.101 0.000486402 83.6006 17.5005 83.6006 39.0005L83.6006 118.2L83.6006 130.1C83.6006 136.7 88.9006 142 95.5006 142L11.9006 142C5.40057 142 0.000580297 136.7 0.000580874 130.1L0.000581915 118.2L0.000588839 39.0005Z" fill="#DE653B"/>
<path d="M9.09961 75.0005C9.09961 92.4005 23.1996 106.5 40.5996 106.5C57.9996 106.5 72.0996 92.4005 72.0996 75.0005C72.0996 57.6005 57.9996 43.5005 40.5996 43.5005C23.1996 43.5005 9.09961 57.6005 9.09961 75.0005Z" fill="white"/>
</g>
<defs>
<clipPath id="clip0_586_5390">
<rect width="370" height="338" fill="white" transform="translate(370 338) rotate(-180)"/>
</clipPath>
</defs>
</svg>
