<svg width="12" height="12" viewBox="0 0 12 12" fill="none" xmlns="http://www.w3.org/2000/svg">
<path d="M5.7001 1.87234C5.88489 1.30359 5.97729 1.01922 6.11607 0.942928C6.23607 0.876958 6.38148 0.876958 6.50147 0.942928C6.64026 1.01922 6.73265 1.30359 6.91745 1.87234L7.65438 4.14039C7.70603 4.29932 7.73185 4.37879 7.78048 4.43758C7.82343 4.4895 7.8788 4.52972 7.94144 4.55453C8.01239 4.58262 8.09594 4.58262 8.26306 4.58262H10.6478C11.2458 4.58262 11.5448 4.58262 11.6603 4.69103C11.7601 4.78477 11.805 4.92306 11.7794 5.05757C11.7497 5.21313 11.5078 5.38888 11.024 5.74039L9.09469 7.14212C8.95949 7.24035 8.89189 7.28946 8.85101 7.35389C8.81491 7.41077 8.79376 7.47586 8.78953 7.5431C8.78474 7.61925 8.81056 7.69872 8.8622 7.85766L9.59913 10.1257C9.78393 10.6945 9.87633 10.9788 9.8089 11.1221C9.75059 11.246 9.63296 11.3315 9.4971 11.3487C9.33998 11.3685 9.09808 11.1928 8.61428 10.8413L6.68496 9.43952C6.54976 9.34129 6.48216 9.29218 6.40825 9.2732C6.34299 9.25645 6.27456 9.25645 6.2093 9.2732C6.13539 9.29218 6.06779 9.34129 5.93259 9.43952L4.00327 10.8413C3.51947 11.1928 3.27757 11.3685 3.12045 11.3487C2.98459 11.3315 2.86696 11.246 2.80865 11.1221C2.74122 10.9788 2.83362 10.6945 3.01841 10.1257L3.75535 7.85766C3.80699 7.69872 3.83281 7.61925 3.82802 7.5431C3.82379 7.47586 3.80264 7.41077 3.76654 7.35389C3.72565 7.28946 3.65805 7.24035 3.52285 7.14212L1.59353 5.74039C1.10973 5.38888 0.867834 5.21313 0.838159 5.05757C0.812499 4.92306 0.857432 4.78477 0.957255 4.69103C1.0727 4.58262 1.37171 4.58262 1.96972 4.58262H4.35449C4.5216 4.58262 4.60516 4.58262 4.67611 4.55453C4.73875 4.52972 4.79412 4.4895 4.83706 4.43758C4.8857 4.37879 4.91152 4.29932 4.96316 4.14039L5.7001 1.87234Z" fill="#EBB441" fill-opacity="0.5"/>
</svg>
