<svg width="564" height="763" fill="none" xmlns="http://www.w3.org/2000/svg"><g clip-path="url(#clip0_586_4633)"><path d="M350.37 26.404C306.246.611 265.399-4.636 233.726 7.168c-40.847 15.083-67.06 58.582-67.278 124.159-.437 116.507 81.476 258.153 182.83 316.735 101.354 58.581 183.486 11.585 183.923-104.923.218-116.508-81.477-258.372-182.831-316.735z" fill="#CBE3FF"/><path d="M431.41 473.418c17.475 0 33.639-4.154 48.056-12.241 34.731-19.892 53.735-61.861 53.953-118.038.218-56.396-18.785-120.443-53.298-180.336-34.513-59.893-80.603-108.42-129.532-136.836-21.625-12.46-43.032-20.548-63.128-23.608C267.802-.7 249.89.83 233.726 6.731c-42.595 15.738-67.278 61.205-67.278 124.377-.437 116.289 81.695 258.59 182.83 316.953 28.834 17.05 57.012 25.357 82.132 25.357zM268.02 1.485c25.339 0 53.517 8.525 82.35 25.137C451.287 84.986 533.201 226.85 532.982 343.14c-.218 55.958-19.222 97.709-53.735 117.6-34.731 19.892-80.821 15.302-129.75-12.896-100.918-58.363-182.831-200.227-182.612-316.517.218-62.953 24.683-108.201 67.059-123.94 10.485-3.934 21.844-5.901 34.076-5.901z" fill="#221C3A"/><path d="M375.927 427.514c.219 0 .219-.219.219-.219v-88.966c0-.218-.219-.218-.219-.218l-.218.218v88.966c-.219.219 0 .219.218.219zM95.02 561.071c.218 0 .218-.218.218-.218v-98.584c0-.218-.218-.218-.218-.218-.219 0-.219.218-.219.218v98.584l.219.218z" fill="#221C3A"/><path d="M49.803 413.524c-6.335-3.716-12.232-4.372-16.82-2.842-5.897 2.186-9.61 8.525-9.61 17.925 0 16.831 11.795 37.378 26.43 45.685 14.635 8.525 26.43 1.748 26.65-15.083-.22-16.831-12.015-37.379-26.65-45.685z" fill="#FDB84C"/><path d="M437.963 342.483c-6.772-3.935-12.888-4.591-17.694-2.842-6.116 2.186-10.048 8.744-10.048 18.799 0 17.487 12.233 38.908 27.523 47.871 15.291 8.743 27.741 1.748 27.741-15.739.219-17.924-12.232-39.346-27.522-48.089z" fill="#F585A4"/><path d="M95.238 41.268c-3.276-1.967-6.334-2.404-8.737-1.53-3.058 1.093-5.024 4.372-5.024 9.18 0 8.744 6.116 19.236 13.543 23.608s13.761.875 13.761-7.869c0-8.525-6.116-19.017-13.543-23.389zM4.806 248.708c-1.092-.656-2.185-.874-3.058-.437C.656 248.708 0 249.801 0 251.55c0 3.06 2.185 6.776 4.806 8.306 2.621 1.53 4.805.219 4.805-2.842 0-3.06-2.184-6.776-4.805-8.306z" fill="#EA4A4A"/><path d="M481.213 451.559c-2.185-1.312-4.369-1.53-5.898-1.093-2.184.874-3.495 3.06-3.495 6.339 0 5.902 4.15 13.115 9.393 16.175 5.242 3.061 9.392.656 9.392-5.464 0-5.684-4.15-12.897-9.392-15.957z" fill="#CBE3FF"/><path d="M485.363 474.729c.874 0 1.748-.219 2.622-.656 1.965-1.093 2.839-3.279 2.839-6.339 0-6.12-4.15-13.334-9.611-16.394-2.184-1.312-4.369-1.749-6.335-1.093-2.402.874-3.713 3.279-3.713 6.558 0 6.12 4.15 13.334 9.611 16.394 1.748 1.093 3.277 1.53 4.587 1.53zm-4.15-22.733c5.024 2.841 9.174 10.055 9.174 15.957 0 2.841-.873 4.809-2.621 5.683-1.747.874-3.932.656-6.334-.656-5.025-2.841-9.175-10.055-9.175-15.957 0-3.06 1.092-5.246 3.277-6.12 1.529-.437 3.495-.219 5.679 1.093z" fill="#221C3A"/><path d="M496.066 131.763c-1.092-.656-2.184-.874-3.058-.437-1.092.437-1.747 1.53-1.747 3.279 0 3.06 2.184 6.776 4.805 8.306 2.622 1.53 4.806.219 4.806-2.841 0-3.061-1.966-6.777-4.806-8.307z" fill="#FFFEF5"/><path d="M420.488 186.848c-2.402-1.53-4.805-1.749-6.553-1.093-2.402.874-3.713 3.279-3.713 6.995 0 6.557 4.587 14.645 10.266 17.924 5.68 3.279 10.267.656 10.267-5.902s-4.587-14.645-10.267-17.924z" fill="#CBE3FF"/><path d="M425.075 212.422c1.092 0 1.966-.218 2.84-.655 1.966-1.093 3.276-3.716 3.276-6.995 0-6.558-4.587-14.864-10.484-18.143-2.403-1.53-4.806-1.749-6.772-1.093-2.621.874-3.932 3.497-3.932 7.213 0 6.558 4.587 14.865 10.485 18.143 1.529 1.093 3.058 1.53 4.587 1.53zm-9.174-26.667c1.311 0 2.84.437 4.587 1.311 5.679 3.279 10.267 11.148 10.048 17.487 0 3.06-1.092 5.246-2.84 6.339-1.965 1.093-4.368.875-6.989-.655-5.68-3.279-10.267-11.148-10.049-17.488 0-3.497 1.311-5.901 3.495-6.776.437 0 1.093-.218 1.748-.218z" fill="#221C3A"/><path d="M205.111 126.299c22.935 13.334 41.502 45.466 41.502 71.697 0 26.449-18.785 36.941-41.721 23.826-22.936-13.334-41.503-45.466-41.503-71.697.219-26.449 18.786-37.16 41.722-23.826z" fill="#5186EB"/><path d="M371.34 458.553c10.048 5.684 17.912 19.673 17.912 31.259 0 11.366-8.082 16.175-18.13 10.273-10.048-5.683-17.912-19.673-17.912-31.258.219-11.366 8.301-15.957 18.13-10.274z" fill="#85B208"/><path d="M218.872 649.818L329.4 556.7 564 692.225l-3.713 2.186h-86.719l-19.441 11.148c-6.99 4.153-15.072 6.12-23.154 6.12h-90.432c-8.301 0-16.601 2.186-23.81 6.339l-42.813 24.701h-4.15l-70.555-80.878 19.659-12.023z" fill="#221C3A"/><path d="M134.993 514.075c1.092-.656 2.184-1.53 3.058-2.623 1.092-1.312 2.184-2.842 2.84-4.372.873-1.749 1.31-3.716 1.31-5.465L361.947 629.49c0 1.748-.437 3.716-1.31 5.464-.656 1.53-1.748 3.061-2.84 4.372-.874 1.093-1.966 1.967-3.277 2.623-1.965 1.093-3.713 1.312-5.024.437L129.751 514.512c1.529.874 3.276.874 5.242-.437zm226.081-245.694l.873 361.109-219.746-127.875-1.092-361.108 219.965 127.874z" fill="#F5EDE0"/><path opacity=".8" d="M134.993 514.075c1.092-.656 2.184-1.53 3.058-2.623 1.092-1.312 2.184-2.842 2.84-4.372.873-1.749 1.31-3.716 1.31-5.465v-31.476l219.746 127v32.351c0 1.749-.437 3.716-1.31 5.465-.656 1.53-1.748 3.06-2.84 4.371a9.663 9.663 0 01-3.277 2.623c-1.965 1.093-3.713 1.312-5.024.438L129.751 514.512c1.529.875 3.276.875 5.242-.437z" fill="#C3B9AC"/><path d="M342.725 576.591c1.311.656 2.185 2.405 2.185 4.591l.218 57.926c0 3.06 1.092 5.246 2.84 6.12L128.222 517.354c-1.748-1.093-2.84-3.061-2.84-6.121l-.218-57.926c0-2.186-.874-3.934-2.185-4.59l219.746 127.874z" fill="#C3B9AC"/><path d="M102.883 580.307c1.529-1.748 2.84-3.934 3.932-6.12 1.092-2.405 1.748-5.028 1.748-7.432l219.746 127.874c0 2.405-.656 5.028-1.748 7.432-.874 2.186-2.403 4.372-3.932 6.121-1.31 1.53-2.839 2.841-4.368 3.716L98.515 584.023c1.529-.874 3.058-2.185 4.368-3.716z" fill="#FCF5E9"/><path d="M269.55 740.096v2.841L49.804 615.063v-2.842L269.55 740.096z" fill="#F5EDE0"/><path d="M98.515 584.023L318.48 711.898l-48.929 28.198L49.804 612.221l48.711-28.198z" fill="#FFFEF5"/><path d="M327.872 591.018l.437 103.829-219.746-127.874-.437-103.829 219.746 127.874z" fill="#F5EDE0"/><path d="M109.873 455.93c.874-2.186 2.184-4.153 3.714-5.902 1.31-1.53 2.621-2.623 4.15-3.497 2.621-1.53 5.024-1.749 6.771-.656l219.965 127.656c-1.748-1.093-4.151-.875-6.772.655-1.529.875-2.839 2.186-4.15 3.498-1.529 1.749-2.84 3.716-3.714 5.902-1.092 2.404-1.747 5.027-1.747 7.213L108.344 462.925c-.218-1.967.437-4.59 1.529-6.995z" fill="#FFFEF5"/><path d="M318.479 711.898c5.461-3.061 9.83-10.711 9.83-17.05l-.219-40.439-.218-63.391c0-5.465 3.276-11.804 7.645-15.301l1.966-1.312c1.529-.874 3.058-1.311 4.369-1.311 3.058 0 5.461 2.404 5.461 6.776l.218 57.926c0 4.59 3.277 6.558 7.208 4.153 3.932-2.404 7.209-7.869 7.209-12.459l-1.092-361.109 2.402-1.53 1.093 361.109c0 6.12-4.369 13.771-9.612 16.831-5.46 3.06-9.611.656-9.829-5.465l-.219-57.926c0-1.093-.218-2.186-.655-2.842-1.092-2.404-3.713-3.06-6.771-1.311-2.622 1.53-4.806 4.372-6.117 7.432-.655 1.749-1.092 3.279-1.092 5.028l.219 62.953v40.658c0 7.869-5.461 17.487-12.233 21.421l-48.711 28.198v-2.841l49.148-28.198z" fill="#C3B9AC"/><path d="M143.731 139.195L363.477 267.07l-2.403 1.311-219.965-127.874 2.622-1.312z" fill="#FFFEF5"/><path d="M109.873 455.93l219.746 127.875c-1.092 2.404-1.747 5.027-1.747 7.213L108.126 463.144c0-2.186.655-4.809 1.747-7.214zm229.794 117.382L119.921 445.438c1.966-.656 3.495-.437 5.024.219l219.528 127.874c-1.311-.656-3.058-.874-4.806-.219z" fill="#FCF5E9"/><path d="M248.143 229.254c30.799 17.705 55.701 60.986 55.483 96.397 0 35.412-25.121 49.62-55.92 31.914-30.799-17.706-55.701-60.986-55.482-96.179 0-35.63 25.12-49.838 55.919-32.132zm-.437 120.223c26.868 15.52 48.93 3.061 48.93-27.979s-21.844-68.855-48.711-84.375c-26.868-15.52-48.93-3.06-48.93 27.979 0 31.04 21.844 68.637 48.711 84.375z" fill="#85B208"/><path d="M262.778 331.335l34.513-8.744 5.898-1.53 8.956 19.892-41.503 44.592-23.373-13.771-36.042-153.231 51.551 112.792z" fill="#C3B9AC"/><path d="M247.706 349.478c26.43 15.301 48.055 3.497 48.929-26.45l.655-.437 5.898-1.311.219.656c0 1.311.218 2.623.218 3.716 0 35.411-25.12 49.619-55.919 31.913-1.966-1.092-3.714-2.404-5.68-3.497l-2.184-9.836 7.864 5.246z" fill="#5B7D00"/><path d="M243.992 330.898l15.509-8.962-57.23-123.066-15.291 8.962 57.012 123.066z" fill="#6E9700"/><path d="M252.511 364.997l15.291-8.962 35.386-34.974-15.29 8.962-35.387 34.974z" fill="#5B7D00"/><path d="M287.898 330.023l15.29-8.962-14.635-18.361-15.509 8.962 14.854 18.361z" fill="#92C309"/><path d="M243.993 330.897l-57.012-123.065 42.814 143.613.218.437 22.499 13.115 35.386-34.974-14.853-18.361-29.052 19.235z" fill="#85B208"/><path d="M342.07 508.173l4.368 2.623v-2.186l-4.368-2.623v2.186zm-9.174-7.432l6.334 3.716v2.186l-6.334-3.716v-2.186zm-12.67-7.214l9.83 5.465v2.186l-9.83-5.683v-1.968zm-15.29-8.962l12.451 7.214v2.186l-12.451-7.214v-2.186zm-2.84-1.53v2.186l-5.243-3.279v-1.967l5.243 3.06zm34.513 25.575l9.829 5.684v2.186l-9.829-5.684v-2.186zm-9.174-5.246l6.335 3.716v1.968l-6.335-3.498v-2.186zm-10.704-6.12l7.864 4.371v2.186l-7.864-4.59v-1.967zm-7.645-4.591l4.806 2.842v2.186l-4.806-2.842v-2.186zm-2.84-1.53v2.186l-8.082-4.809v-2.186l8.082 4.809zm35.824 26.449l4.368 2.623v1.968l-4.368-2.405v-2.186zm-9.174-5.246l6.334 3.716v1.967l-6.334-3.716v-1.967zm-9.393-5.465l6.553 3.716v2.186l-6.553-3.934v-1.968zm-20.97-12.022l17.911 10.274v2.185l-17.911-10.492v-1.967zm34.076 25.356l9.829 5.684v2.185l-9.829-5.683v-2.186zm-9.174-5.246l6.335 3.498v2.186l-6.335-3.716v-1.968zm-10.704-6.339l7.864 4.591v2.186l-7.864-4.591v-2.186zm-7.645-4.372l4.806 2.842v1.967l-4.806-2.623v-2.186zm32.984 24.92l4.368 2.404v2.186l-4.368-2.623v-1.967zm-9.174-5.465l6.334 3.716v2.186l-6.334-3.716v-2.186zm-12.451-6.995l9.611 5.464v1.968l-9.611-5.465v-1.967zm21.625 25.356l4.368 2.404v2.186l-4.368-2.623v-1.967zm-9.174-5.465l6.334 3.716v2.186l-6.334-3.716v-2.186zm-15.946-9.181l13.106 7.651v1.967l-13.106-7.432v-2.186zm-9.83-5.683l6.772 3.935v2.186l-6.772-3.935v-2.186zm29.489 22.952l9.829 5.683v1.967l-9.829-5.683v-1.967zm-9.174-5.465l6.335 3.716v2.186l-6.335-3.716v-2.186zm-6.335-3.497l3.495 1.967v1.967l-3.495-1.967v-1.967zm-7.645-4.59l4.806 2.841v2.186l-4.806-2.842v-2.185zm28.615 22.295l4.368 2.623v1.968l-4.368-2.405v-2.186zm-6.771-3.934l3.931 2.404v1.968l-3.931-2.186v-2.186zm3.931 7.869l7.208 4.372v2.186l-7.208-4.372v-2.186zM235.473 446.531l5.024 3.06v-2.186l-5.024-3.06v2.186zm-10.922-8.306l7.645 4.371v1.968l-7.645-4.154v-2.185zm-14.635-8.525l11.358 6.557v2.186l-11.358-6.557V429.7zm-15.509-8.963l12.233 6.995v2.186l-12.233-6.995v-2.186zm-3.276-1.967v2.186l-5.243-3.06v-2.186l5.243 3.06zm38.007 27.761l11.359 6.557v2.186l-11.359-6.557v-2.186zm-10.921-6.339l7.427 4.372v2.186l-7.427-4.372v-2.186zm-12.451-7.213l9.174 5.464v1.968l-9.174-5.247v-2.185zm-8.956-5.028l5.679 3.279v1.967l-5.679-3.279v-1.967zm-3.277-1.967v2.185l-7.645-4.59v-1.967l7.645 4.372zm41.94 29.946l5.024 3.06v1.968l-5.024-2.842v-2.186zm-10.922-6.12l7.645 4.153v2.186l-7.645-4.372v-1.967zm-10.922-6.558l7.645 4.59v1.968l-7.645-4.372v-2.186zm-24.246-13.99l20.97 12.023v2.185l-20.97-12.022v-2.186zm39.755 28.854l11.359 6.558v2.186l-11.359-6.776v-1.968zm-10.921-6.339l7.427 4.372v1.967l-7.427-4.153v-2.186zm-12.451-7.214l9.174 5.247v2.185l-9.174-5.246v-2.186zm-8.956-5.246l5.679 3.279v2.186l-5.679-3.279v-2.186zm38.663 28.199l5.024 2.841v2.186l-5.024-3.06v-1.967zm-10.922-6.34l7.645 4.372v2.186l-7.645-4.372v-2.186zm-14.198-8.306l10.921 6.339v2.186l-10.921-6.339v-2.186zm25.12 27.542l5.024 2.842v2.186l-5.024-3.061v-1.967zm-10.922-6.339l7.645 4.372v2.186l-7.645-4.372v-2.186zm-16.383-9.399l13.106 7.432v2.186l-13.106-7.651v-1.967zm-13.76-8.088l10.485 6.12v1.968l-10.485-5.902v-2.186zm34.73 25.793l11.359 6.558v2.186l-11.359-6.558v-2.186zm-10.921-6.12l7.427 4.153v2.186l-7.427-4.372v-1.967zm-14.854-8.744l11.577 6.776v2.186l-11.577-6.776v-2.186zm-8.955-5.027l5.679 3.279v1.967l-5.679-3.279v-1.967zm41.065 29.291l5.024 3.06v1.967l-5.024-2.841v-2.186zm-10.922-6.121l7.645 4.153v2.186l-7.645-4.372v-1.967zm3.714 7.869l12.232 6.995v2.186l-12.232-7.213v-1.968zm-55.046-82.845l5.461 3.06v-2.186l-5.461-3.06v2.186zm-13.762-10.055l10.267 5.902v2.186l-10.267-5.902v-2.186zm7.209 9.836l12.014 6.777v2.186l-12.014-6.995v-1.968zm-7.208-4.153l3.713 2.186v1.967l-3.713-1.967v-2.186zm13.761 13.772l5.461 3.06v1.967l-5.461-3.06v-1.967zm-13.762-8.088l10.267 5.902v2.185l-10.267-5.901v-2.186zm7.209 9.836l12.014 6.995v2.186l-12.014-6.995v-2.186zm-7.208-3.934l3.713 1.967v2.186l-3.713-2.186v-1.967zm13.761 13.552l5.461 3.06v2.186l-5.461-3.06v-2.186zm-13.762-7.869l10.267 5.902v2.185l-10.267-5.902v-2.185zm13.762 20.766l5.461 3.06v2.186l-5.461-3.06v-2.186zm-13.762-7.869l10.267 5.901v2.186l-10.267-5.902v-2.185zm7.209 9.836l12.014 6.995v1.967l-12.014-6.776v-2.186zm-7.208-4.153l3.713 2.186v2.185l-3.713-2.185v-2.186zm13.761 13.771l5.461 3.06v1.968l-5.461-3.061v-1.967zm-13.762-8.088l10.267 5.902v2.186l-10.267-5.902v-2.186zm7.864 10.274l11.359 6.557v2.186l-11.359-6.557v-2.186zm-7.427-4.153l3.713 1.967v2.186l-3.713-2.186v-1.967zm121.232 19.017l4.369 2.623v-2.186l-4.369-2.623v2.186zm-9.174-7.432l6.335 3.716v2.186l-6.335-3.716v-2.186zm-12.669-7.214l9.829 5.465v2.186l-9.829-5.683v-1.968zm16.383 15.083l9.829 5.683v2.186l-9.829-5.683v-2.186zm-9.174-5.246l6.334 3.716v2.186l-6.334-3.716v-2.186zm-10.704-6.121l7.863 4.372v2.186l-7.863-4.59v-1.968zm25.338 20.329l4.369 2.623v1.968l-4.369-2.405v-2.186zm-9.174-5.246l6.335 3.716v1.968l-6.335-3.716v-1.968zm-9.393-5.465l6.553 3.716v2.186l-6.553-3.934v-1.968zm13.107 13.334l9.829 5.684v2.186l-9.829-5.684v-2.186zm-9.174-5.246l6.334 3.498v2.186l-6.334-3.716v-1.968zm-10.704-6.339l7.863 4.59v2.186l-7.863-4.59v-2.186zm25.338 20.547l4.369 2.405v2.186l-4.369-2.623v-1.968zm-9.174-5.464l6.335 3.716v2.185l-6.335-3.716V488.5zm-12.232-6.995l9.392 5.465v1.967l-9.392-5.465v-1.967zm21.406 25.356l4.369 2.404v2.186l-4.369-2.623v-1.967zm-9.174-5.465l6.335 3.716v2.186l-6.335-3.716v-2.186zm3.714 8.088l9.829 5.683v1.967l-9.829-5.683v-1.967zm-9.174-5.464l6.334 3.716v2.185l-6.334-3.716v-2.185zm-6.117-3.498l3.276 1.967v1.968l-3.276-1.968v-1.967zm20.751 17.706l4.369 2.623v1.967l-4.369-2.404v-2.186zm-11.358-.874l15.727 9.18v2.186l-15.727-9.181v-2.185zm72.52-53.336l4.587 2.623v-2.186l-4.587-2.623v2.186zm-9.612-5.683l6.553 3.934v-2.185l-6.553-3.935v2.186zm-21.406-12.241l18.348 10.492V454.4l-18.348-10.492v2.186zm-10.266-5.902l7.208 4.153v-2.186l-7.208-4.371v2.404zm-3.059-3.935v2.186l-3.495-2.186v-2.186l3.495 2.186zm-13.105-5.465l6.553 3.935v-2.405l-6.553-3.716v2.186zm-8.52-5.027l5.461 3.279v-2.186l-5.461-3.279v2.186zm60.289 40.876l10.266 5.902v-2.186l-10.266-5.902v2.186zm-9.83-5.464l6.772 3.716v-2.186l-6.772-3.716v2.186zm-11.14-6.558l8.3 4.808v-2.185l-8.3-4.809v2.186zm-7.864-4.591l5.024 2.842v-2.186l-5.024-2.842v2.186zm-3.058-3.934v2.186l-6.335-3.716v-2.186l6.335 3.716zm-15.072-6.558l5.898 3.497v-2.404l-5.898-3.279v2.186zm-18.567-10.711l15.509 8.962v-2.186l-15.509-8.962v2.186zm71.21 47.215l4.587 2.623v-2.185l-4.587-2.624v2.186zm-9.612-5.683l6.553 3.935v-2.186l-6.553-3.935v2.186zm-10.048-5.683l6.99 3.934v-2.186l-6.99-3.934v2.186zm-21.624-12.46l18.785 10.711v-2.186l-18.785-10.929v2.404zm-3.059-3.934v2.186l-3.495-2.186v-2.186l3.495 2.186zm-13.105-5.465l6.553 3.934v-2.404l-6.553-3.716v2.186zm-8.52-5.028l5.461 3.279v-2.186l-5.461-3.278v2.185zm60.289 40.876l10.266 5.902v-2.186l-10.266-5.901v2.185zm-9.83-5.464l6.772 3.716v-2.186l-6.772-3.716v2.186zm-11.14-6.558l8.3 4.809v-2.186l-8.3-4.809v2.186zm-7.864-4.59l5.024 2.841v-2.186l-5.024-2.841v2.186zm-3.058-3.935v2.186l-6.335-3.716V454.4l6.335 3.716zm-15.072-6.558l5.898 3.498v-2.405l-5.898-3.278v2.185zm-20.096-11.585l17.038 9.837v-2.186l-17.038-9.836v2.185zm72.739 48.09l4.587 2.623V488.5l-4.587-2.623v2.186zm-9.612-5.684l6.553 3.935v-2.186l-6.553-3.935v2.186zm-22.935-13.115l19.877 11.367v-2.186l-19.877-11.367v2.186z" fill="#C3B9AC"/><path d="M301.003 464.237l9.83 5.683v-2.186l-9.83-5.902v2.405zm-3.058-3.935v2.186l-3.495-2.186v-2.186l3.495 2.186zm-13.105-5.465l6.553 3.935v-2.405l-6.553-3.716v2.186zm-8.52-5.027l5.461 3.279v-2.186l-5.461-3.279v2.186zm60.289 40.876l10.266 5.902v-2.186l-10.266-5.902v2.186zm-9.83-5.465l6.772 3.716v-2.186l-6.772-3.716v2.186zm-6.335-3.716l3.495 1.967v-2.186l-3.495-2.185v2.404zm-12.668-7.432l9.611 5.683v-2.185l-9.611-5.684v2.186zm-3.059-3.935v2.186l-6.335-3.716v-2.186l6.335 3.716zm-15.072-6.557l5.898 3.497v-2.404l-5.898-3.279v2.186zm-21.407-12.46l18.349 10.711v-2.186l-18.349-10.71v2.185zm-5.242-33.007l10.267 6.121v-2.405l-10.267-5.902v2.186zm-9.611-5.465l6.553 3.935v-2.405l-6.553-3.716v2.186zm-16.164-9.399l13.106 7.651v-2.186l-13.106-7.651v2.186zm-13.98-8.088l10.922 6.34v-2.186l-10.922-6.339v2.185zm-3.058-3.934v2.185l-10.267-5.901v-2.186l10.267 5.902zm-19.878-9.181l6.553 3.716v-2.186l-6.553-3.934v2.404zm57.012 38.909l10.921 6.12v-2.185l-10.921-6.121v2.186zm-9.611-5.684l6.553 3.935v-2.186l-6.553-3.935v2.186zm-5.68-3.278l2.621 1.53v-2.186l-2.621-1.53v2.186zm-12.013-6.777l8.956 5.247v-2.405l-8.956-5.246v2.404zm-3.059-3.934v2.186l-9.174-5.246v-2.405l9.174 5.465zm-21.843-10.493l9.829 5.684v-2.186l-9.829-5.684v2.186zm57.885 39.347l10.267 6.12v-2.404l-10.267-5.902v2.186zm-9.611-5.465l6.553 3.934v-2.404l-6.553-3.716v2.186zm-8.082-4.809l5.024 3.06v-2.186l-5.024-3.06v2.186zm-22.062-12.678l19.004 10.929v-2.186l-19.004-10.929v2.186zm-3.058-3.935v2.186l-10.267-5.902v-2.186l10.267 5.902zm-19.878-9.181l6.553 3.717V395.6l-6.553-3.935v2.404zm57.012 38.909l9.393 5.465v-2.404l-9.393-5.247v2.186zm-9.611-5.683l6.553 3.934v-2.186l-6.553-3.934v2.186zm-8.301-4.591l5.242 2.842v-2.186l-5.242-2.841v2.185zm-9.393-5.464l6.553 3.716v-2.186l-6.553-3.935v2.405zm-3.058-3.935v2.186l-9.174-5.246v-2.405l9.174 5.465zm-21.843-10.492l9.829 5.683v-2.186l-9.829-5.683v2.186zm57.885 39.346l10.267 6.121v-2.405l-10.267-5.902v2.186zm-9.611-5.465l6.553 3.935v-2.405l-6.553-3.716v2.186zm-11.358-6.557l8.3 4.809v-2.186l-8.3-4.809v2.186zm-18.786-10.93l15.728 9.181v-2.186l-15.728-9.181v2.186zm-3.058-3.934v2.185l-10.267-5.902v-2.185l10.267 5.902zm-19.878-9.181l6.553 3.716v-2.186l-6.553-3.934v2.404zM257.317 445l7.864 4.591v-2.186l-7.864-4.591V445zm-9.611-5.683l6.553 3.935v-2.186l-6.553-3.935v2.186zm-7.646-4.371l4.587 2.623v-2.186l-4.587-2.623v2.186z" fill="#C3B9AC"/><path d="M230.012 429.262l12.67 7.214v-2.186l-12.67-7.432v2.404zm-3.058-3.934v2.185l-9.174-5.246v-2.404l9.174 5.465zm-21.843-10.493l9.829 5.684v-2.186l-9.829-5.684v2.186zm-45.654-56.395l15.072 8.525v-2.186l-15.072-8.525v2.186zm6.553 9.836l12.67 7.214v-2.186l-12.67-7.214v2.186zm-6.334-3.716l3.495 1.968v-2.186l-3.495-1.967v2.185zm6.334 15.739l12.67 7.213v-2.186l-12.67-7.213v2.186zm-6.334-3.716l3.495 1.967v-2.186l-3.495-1.967v2.186zm-.437 5.683l15.29 8.744v-2.186l-15.29-8.744v2.186zm10.922 12.459l8.519 4.809v-2.186l-8.519-5.027v2.404zm-10.703-6.338l7.863 4.59v-2.186l-7.863-4.59v2.186zm37.789-10.274v2.186l-10.266-6.121v-2.186l10.266 6.121zm-19.878-9.4l6.553 3.716v-2.186l-6.553-3.716v2.186zm24.465 17.925v2.186l-6.771-3.935v-2.186l6.771 3.935zm-19.659-9.181l9.83 5.683v-2.186l-9.83-5.683v2.186zm15.072 12.678v2.186l-10.266-6.12v-2.186l10.266 6.12zm-19.878-9.399l6.553 3.716v-2.186l-6.553-3.716v2.186zm24.465 17.924v2.186l-6.771-3.935v-2.186l6.771 3.935zm-19.659-9.181l9.83 5.684v-2.186l-9.83-5.684v2.186zm15.072 12.678v2.186l-10.266-6.12v-2.186l10.266 6.12zm-19.878-9.399l6.553 3.716v-2.186l-6.553-3.716v2.186zm24.465 17.924v2.186l-6.771-3.935v-2.185l6.771 3.934zm-19.659-9.181l9.83 5.684v-2.186l-9.83-5.684v2.186zm160.113 19.455l4.587 2.623v-2.186l-4.587-2.623v2.186zm-9.612-5.683l6.553 3.934v-2.186l-6.553-3.934v2.186zm-21.406-12.241l18.348 10.492v-2.186l-18.348-10.492v2.186zm-10.266-5.902l7.208 4.153v-2.186l-7.208-4.371v2.404zm-3.059-3.935v2.186l-3.495-2.186v-2.186l3.495 2.186zm-13.105-5.465l6.553 3.716v-2.186l-6.553-3.716v2.186zm-8.52-5.027l5.461 3.279v-2.186l-5.461-3.279v2.186zm60.289 40.876l10.266 5.902v-2.186l-10.266-5.902v2.186zm-9.83-5.465l6.772 3.716v-2.186l-6.772-3.716v2.186zm-11.14-6.558l8.3 4.809v-2.185l-8.3-4.809v2.185zm-7.864-4.59l5.024 2.842v-2.186l-5.024-2.842v2.186zm-3.058-3.934v2.186l-6.335-3.716v-2.186l6.335 3.716zm-15.072-6.558l5.898 3.497v-2.404l-5.898-3.279v2.186zm-12.232-6.995l9.174 5.246v-2.185l-9.174-5.247v2.186zm64.875 43.499l4.587 2.623v-2.185l-4.587-2.624v2.186zm-9.612-5.683l6.553 3.935v-2.186l-6.553-3.935v2.186zm-10.048-5.683l6.99 3.934v-2.186l-6.99-3.934v2.186zm-21.624-12.46l18.785 10.711v-2.186l-18.785-10.929v2.404zm-3.059-3.934v2.186l-3.495-2.186v-2.186l3.495 2.186zm-13.105-5.465l6.553 3.716v-2.186l-6.553-3.716v2.186zm-8.52-5.028l5.461 3.279v-2.186l-5.461-3.278v2.185zm60.289 40.876l10.266 5.902v-2.186l-10.266-5.901v2.185zm-9.83-5.464l6.772 3.716v-2.186l-6.772-3.716v2.186zm-11.14-6.558l8.3 4.809v-2.186l-8.3-4.809v2.186zm-7.864-4.59l5.024 2.841v-2.186l-5.024-2.841v2.186zm-3.058-3.935v2.186l-6.335-3.716v-2.186l6.335 3.716zm-15.072-6.558l5.898 3.498v-2.405l-5.898-3.278v2.185zm-20.096-11.585l17.038 9.837v-2.186l-17.038-9.836v2.185zm72.739 48.09l4.587 2.623v-2.186l-4.587-2.623v2.186zm-9.612-5.684l6.553 3.935v-2.186l-6.553-3.935v2.186zm-22.935-13.115l19.877 11.367v-2.186l-19.877-11.367v2.186z" fill="#C3B9AC"/><path d="M301.003 421.175l9.83 5.683v-2.186l-9.83-5.902v2.405zm-3.058-3.935v2.186l-3.495-2.186v-2.186l3.495 2.186zm-13.105-5.465l6.553 3.716v-2.186l-6.553-3.716v2.186zm-8.52-5.027l5.461 3.279v-2.186l-5.461-3.279v2.186zm60.289 40.876l10.266 5.902v-2.186l-10.266-5.902v2.186zm-9.83-5.465l6.772 3.716v-2.186l-6.772-3.716v2.186zm-6.335-3.935l3.495 2.186v-2.186l-3.495-2.185v2.185zm-12.668-7.213l9.611 5.683v-2.186l-9.611-5.683v2.186zm-3.059-3.935v2.186l-6.335-3.716v-2.186l6.335 3.716zm-15.072-6.557l5.898 3.497v-2.404l-5.898-3.279v2.186zm-21.407-12.46l18.349 10.711v-2.186l-18.349-10.71v2.185zm-5.242-33.007l10.267 5.902v-2.186l-10.267-5.902v2.186zm-9.611-5.465l6.553 3.716v-2.186l-6.553-3.716v2.186zm-16.165-9.399l4.588 2.623v-2.185l-4.588-2.624v2.186zm-13.979-8.088l10.922 6.34v-2.186l-10.922-6.339v2.185zm-3.058-3.934v2.185l-10.267-5.901v-2.186l10.267 5.902zm-19.878-9.181l6.553 3.716v-2.186l-6.553-3.934v2.404zm57.012 38.909l10.921 6.12v-2.186l-10.921-6.12v2.186zm-9.611-5.684l6.553 3.935v-2.186l-6.553-3.935v2.186zm-5.68-3.279l2.621 1.531v-2.186l-2.621-1.53v2.185zm-12.013-6.994l8.956 5.465v-2.405l-8.956-5.246v2.186zm-3.059-3.716v2.186l-9.174-5.246v-2.405l9.174 5.465zm-21.843-10.493l9.829 5.684v-2.186l-9.829-5.684v2.186zm57.885 39.347l10.267 5.901v-2.185l-10.267-5.902v2.186zm-9.611-5.465l6.553 3.716v-2.186l-6.553-3.716v2.186zm-8.082-4.809l5.024 3.06v-2.186l-5.024-3.06v2.186zm-22.062-12.678l19.004 10.929v-2.186l-19.004-10.929v2.186zm-3.058-3.935v2.186l-10.267-5.902v-2.186l10.267 5.902zm-19.878-9.181l6.553 3.716v-2.185l-6.553-3.935v2.404zm57.012 38.909l9.393 5.246v-2.185l-9.393-5.247v2.186zm-9.611-5.683l6.553 3.934v-2.186l-6.553-3.934v2.186zm-8.301-4.591l5.242 2.842v-2.186l-5.242-2.841v2.185zm-9.393-5.683l6.553 3.935v-2.186l-6.553-3.935v2.186zm-3.058-3.716v2.186l-9.174-5.246v-2.405l9.174 5.465zm-21.843-10.492l9.829 5.683v-2.186l-9.829-5.683v2.186zm57.885 39.346l10.267 5.902v-2.186l-10.267-5.902v2.186zm-9.611-5.465l6.553 3.716v-2.186l-6.553-3.716v2.186zm-11.358-6.557l8.3 4.809v-2.186l-8.3-4.809v2.186zm-18.786-10.93l15.728 9.181v-2.186l-15.728-9.181v2.186zm-3.058-3.935v2.186l-10.267-5.902v-2.185l10.267 5.901zm-19.878-9.18l6.553 3.716v-2.186l-6.553-3.935v2.405zm57.012 38.908l7.864 4.591v-2.405l-7.864-4.372v2.186zm-9.611-5.683l6.553 3.935v-2.186l-6.553-3.935v2.186zm-7.646-4.371l4.587 2.623v-2.186l-4.587-2.623v2.186z" fill="#C3B9AC"/><path d="M230.012 385.982l12.67 7.432v-2.186l-12.67-7.432v2.186zm-3.058-3.935v2.404l-9.174-5.246v-2.404l9.174 5.246zm-21.843-10.274l9.829 5.684v-2.186l-9.829-5.684v2.186zm-45.872-56.614l15.29 8.744v-2.186l-15.29-8.744v2.186zm6.771 10.055l12.67 7.214v-2.186l-12.67-7.214v2.186zm-6.552-3.934l3.713 2.186v-2.186l-3.713-2.186v2.186zm6.552 15.957l12.67 7.213v-2.186l-12.67-7.213v2.186zm-6.552-3.935l3.713 2.186v-2.186l-3.713-2.186v2.186zm-.219 5.902l15.29 8.743v-2.185l-15.29-8.744v2.186zm10.922 12.241l8.519 5.027v-2.186l-8.519-5.027v2.186zm-10.485-5.902l7.645 4.371v-2.404l-7.645-4.372v2.405zm37.571-10.492v2.186l-10.266-6.121v-2.186l10.266 6.121zm-19.878-9.4l6.553 3.716v-2.186l-6.553-3.716v2.186zm24.465 17.925v2.186l-6.771-3.935v-2.186l6.771 3.935zm-19.659-9.181l9.83 5.683v-2.186l-9.83-5.683v2.186zm15.072 12.678v2.186l-10.266-6.12v-2.186l10.266 6.12zm-19.878-9.399l6.553 3.716v-2.186l-6.553-3.716v2.186zm24.465 17.924v2.186l-6.771-3.935v-2.186l6.771 3.935zm-19.659-9.181l9.83 5.684v-2.186l-9.83-5.684v2.186zm15.072 12.678v2.186l-10.266-6.121v-2.185l10.266 6.12zm-19.878-9.399l6.553 3.716v-2.186l-6.553-3.716v2.186zm24.465 17.924v2.186l-6.771-3.935v-2.185l6.771 3.934zm-19.659-9.181l9.83 5.684v-2.186l-9.83-5.684v2.186zm125.601 231.049l4.369 2.404v2.186l-4.369-2.623v-1.967zm-9.174-5.465l6.335 3.716v2.186l-6.335-3.716v-2.186zm-9.612-5.464l6.772 3.934v1.968l-6.772-3.717v-2.185zm-20.751-12.023l17.911 10.492v1.968l-17.911-10.274v-2.186zm-2.84-1.53v1.967l-7.426-4.153v-2.186l7.426 4.372zm36.916 27.105l9.83 5.683v1.967l-9.83-5.683v-1.967zm-9.174-5.465l6.335 3.717v2.185l-6.335-3.716v-2.186zm-10.704-6.12l7.864 4.59v1.968l-7.864-4.372v-2.186zm-7.645-4.372l4.806 2.623v2.186l-4.806-2.841v-1.968zm-2.84-1.748v2.185l-13.98-8.087v-2.186l13.98 8.088zm35.824 26.448l4.369 2.624v2.185l-4.369-2.623v-2.186zm-9.174-5.246l6.335 3.716v2.186l-6.335-3.716v-2.186zm-21.844-12.678l19.004 10.93v2.185l-19.004-10.929v-2.186zm32.983 51.806l2.185 1.311v2.186l-2.185-1.311v-2.186zm-23.809-13.771l20.969 12.241v1.967l-20.969-12.022v-2.186zm-2.839-1.749v2.186l-8.956-5.028v-2.186l8.956 5.028zm20.969 17.924l7.645 4.591v1.967l-7.645-4.372v-2.186zm-11.577-6.776l8.738 5.028v2.186l-8.738-5.028v-2.186zm-2.839-1.53v2.186l-7.864-4.591v-1.967l7.864 4.372zm7.208 9.836l15.072 8.744v2.186l-15.072-8.744v-2.186zm10.922-24.045l4.369 2.405v2.186l-4.369-2.405v-2.186zm-9.174-5.464l6.335 3.716v2.186l-6.335-3.716v-2.186zm-20.534-11.804l17.694 10.274v2.186l-17.694-10.274v-2.186zm-9.829-5.683l6.99 4.153v1.967l-6.99-3.934v-2.186zm34.076 25.575l9.83 5.683v1.967l-9.83-5.683v-1.967zm-9.174-5.465l6.335 3.716v2.186l-6.335-3.716v-2.186zm-10.704-6.12l7.864 4.59v2.186l-7.864-4.591v-2.185zm-7.645-4.372l4.806 2.842v1.967l-4.806-2.842v-1.967zm27.523 54.21l9.611 5.683v2.186l-9.611-5.683v-2.186zm6.116 9.399l3.276 1.968v1.967l-3.276-1.967v-1.968zm-50.458-34.974l5.679 3.279v2.185l-5.679-3.278v-2.186zm0 5.683l14.417 8.306v2.186l-14.417-8.306v-2.186zm-139.799-71.915c.218 0 .218.218.218.437v.874c60.507 34.974 75.142 43.281 131.498 76.069v-85.687l-.874-.437c-.218 0-.218-.218-.218-.437s.218-.219.218-.219l2.403 1.312c.219 0 .219.219.219.437 0 .219-.219.219-.219.219l-.873-.437v85.905c0 .218-.219.218-.219.218-19.441-11.366-112.276-64.92-131.935-76.287v.874c0 .219-.218.219-.218.219-.219 0-.219-.219-.219-.437v-2.405c0-.437 0-.437.219-.218z" fill="#C3B9AC"/><path d="M234.382 632.331l-.437-.437v-86.342l.437.218v86.561zm-15.728-9.18l-.437-.219v-86.561l.437.219v86.561zm-15.727-8.962l-.219-.437V527.19l.219.438v86.561zm-15.728-9.181l-.218-.219v-86.561l.218.219v86.561zm-15.509-9.181l-.436-.219v-86.561l.436.438v86.342zm-15.727-8.962l-.437-.218v-86.562l.437.219v86.561zm-15.727-9.181l-.437-.219v-86.561l.437.219v86.561zm-15.727-8.962l-.437-.219v-86.561l.437.219v86.561z" fill="#C3B9AC"/><path d="M126.475 489.811l-1.748.656 30.8 48.308 9.392 5.684 17.257 26.886 18.13 10.492 20.314 32.133 21.844 12.678v1.967L219.747 615.5l-20.315-31.914-18.13-10.711-17.256-26.886-9.393-5.465-31.236-49.401-1.529.656-1.748-7.432 6.335 5.464z" fill="#85B208"/><path d="M130.843 140.507c-15.509-12.678-31.018-25.138-46.527-37.816-1.31-1.093.656-3.06 1.966-1.967 15.509 12.678 31.018 25.138 46.527 37.816 1.311 1.093-.655 3.06-1.966 1.967zm7.645-8.962c-2.184-2.623-4.15-5.246-6.334-7.869-1.092-1.312.874-3.279 1.966-1.968 2.184 2.623 4.15 5.247 6.334 7.87 1.093 1.311-.873 3.278-1.966 1.967zm-10.048 21.203c-9.392-3.497-18.785-7.213-28.178-10.711-1.529-.655-.874-3.278.655-2.623 9.393 3.498 18.786 7.214 28.179 10.711 1.529.656.873 3.279-.656 2.623zm20.97-26.012c-3.277-9.399-6.771-18.58-10.048-27.98-.655-1.748 1.966-2.404 2.621-.655 3.277 9.399 6.772 18.58 10.048 27.979.656 1.53-2.184 2.405-2.621.656z" fill="#FFFEF5"/><path d="M140.017 269.256c3.277 1.967 5.898 6.557 5.898 10.273 0 3.716-2.621 5.465-6.116 3.498-3.277-1.967-5.898-6.558-5.898-10.492 0-3.716 2.84-5.247 6.116-3.279zm-31.891 29.072c9.611 5.683 17.475 19.017 17.475 30.165s-7.864 15.52-17.475 10.055c-9.611-5.683-17.475-19.017-17.475-30.165s7.864-15.52 17.475-10.055z" fill="#6361C2"/><path d="M332.677 326.963c5.46 3.279 10.048 10.93 9.829 17.269 0 6.339-4.587 8.962-10.048 5.683s-10.048-10.929-9.829-17.269c0-6.339 4.587-8.743 10.048-5.683z" fill="#EA4A4A"/><path d="M250.326 135.261c1.966 1.093 3.495 3.716 3.495 5.902s-1.529 3.06-3.495 1.967c-1.966-1.093-3.495-3.716-3.495-5.902.219-2.186 1.748-3.06 3.495-1.967z" fill="#6361C2"/><path d="M251.856 143.786c.437 0 .655 0 1.092-.219.655-.437 1.092-1.311 1.092-2.404 0-2.186-1.529-5.028-3.495-6.121-1.092-.655-1.966-.655-2.621-.218-.655.437-1.092 1.311-1.092 2.404 0 2.186 1.529 5.028 3.495 6.121.436.218 1.092.437 1.529.437zm-3.058-8.744c.436 0 .873.219 1.31.437 1.748 1.093 3.277 3.716 3.277 5.684 0 .874-.219 1.749-.874 1.967-.655.437-1.311.219-2.184-.218-1.748-1.093-3.277-3.716-3.277-5.684 0-.874.219-1.749.874-1.967.437-.219.655-.219.874-.219z" fill="#221C3A"/><path d="M369.592 242.15c12.67 7.214 22.718 24.92 22.718 39.346 0 14.427-10.267 20.329-22.936 13.116-12.669-7.214-22.717-24.919-22.717-39.346.218-14.427 10.484-20.329 22.935-13.116z" fill="#6361C2"/><path d="M9.174 333.739c5.024 2.842 9.175 10.055 9.175 15.739 0 5.902-4.15 8.087-9.175 5.246C4.15 351.882 0 344.669 0 338.985c0-5.683 4.15-8.087 9.174-5.246z" fill="#5186EB"/><path d="M353.865 208.488c3.277 1.967 6.116 6.558 6.116 10.492 0 3.935-2.621 5.465-6.116 3.498-3.276-1.968-6.116-6.558-6.116-10.493.219-3.716 2.84-5.464 6.116-3.497z" fill="#FFCE45"/><path d="M98.296 386.201c-.656 6.557-6.117 8.743-12.888 5.464l-20.97-10.273 20.97 13.989c6.771 4.591 12.232 13.116 12.888 20.329l1.966 22.078 1.965-19.892c.656-6.558 6.117-8.744 12.888-5.465l20.97 10.274-20.97-13.99c-6.771-4.59-12.232-13.115-12.888-20.328l-1.965-22.078-1.966 19.892zm-33.858 12.896c-.219 1.967-1.748 2.623-3.713 1.53l-6.117-3.06 6.117 4.153c1.965 1.312 3.713 3.935 3.713 5.902l.655 6.558.656-5.902c.218-1.967 1.747-2.623 3.713-1.53l6.116 3.06-6.116-4.153c-1.966-1.312-3.713-3.935-3.713-5.902l-.656-6.558-.655 5.902zm8.956-43.061c0 1.093-1.093 1.53-2.185.874l-3.495-1.749 3.495 2.186c1.092.656 1.966 2.186 2.185 3.279l.218 3.716.219-3.279c0-1.093 1.092-1.53 2.184-.874l3.495 1.749-3.495-2.186c-1.092-.656-1.966-2.186-2.184-3.279l-.219-3.716-.218 3.279zm55.264 38.471c0 .437-.437.656-.874.437l-1.31-.656 1.31.875c.437.218.874.874.874 1.311l.219 1.53.218-1.311c0-.437.437-.656.874-.437l1.31.655-1.31-.874c-.437-.219-.874-.874-.874-1.312l-.218-1.53-.219 1.312zm-40.41-40.876c0 .874-.656 1.093-1.53.656l-2.62-1.312 2.62 1.749c.874.656 1.53 1.749 1.53 2.623l.218 2.842.219-2.405c0-.874.655-1.093 1.529-.656l2.621 1.312-2.621-1.749c-.874-.655-1.53-1.748-1.53-2.623l-.218-2.841-.218 2.404z" fill="#FFFEF5"/><path d="M85.19 374.616c0 .437-.437.655-.874.437l-1.53-.875 1.53 1.093c.437.438.874 1.093.874 1.53l.218 1.749.218-1.53c0-.437.437-.656.874-.437l1.53.874-1.53-1.093c-.437-.437-.874-1.093-.874-1.53l-.218-1.749-.218 1.531zm312.799-122.847c-.437 3.934-3.495 5.246-7.645 3.278l-12.451-6.12 12.451 8.306c4.15 2.623 7.208 7.87 7.645 12.023l1.092 13.115 1.092-11.804c.437-3.934 3.495-5.246 7.646-3.279l12.451 6.121-12.451-8.306c-4.151-2.624-7.209-7.87-7.646-12.023l-1.092-13.115-1.092 11.804zm21.626-19.892c-.219 1.967-1.748 2.623-3.714 1.53l-6.116-3.06 6.116 4.153c1.966 1.312 3.714 3.935 3.714 5.902l.655 6.558.655-5.902c.219-1.968 1.748-2.623 3.714-1.53l6.116 3.06-6.116-4.153c-1.966-1.312-3.714-3.935-3.714-5.902l-.655-6.558-.655 5.902zm-38.226 1.967c0 1.093-1.092 1.53-2.185.875l-3.495-1.749 3.495 2.186c1.093.656 1.966 2.186 2.185 3.279l.218 3.716.219-3.279c0-1.093 1.092-1.53 2.184-.875l3.495 1.749-3.495-2.186c-1.092-.655-1.966-2.186-2.184-3.279l-.219-3.716-.218 3.279zm.218 36.504c0 .438-.437.656-.874.438l-1.529-.875 1.529 1.093c.437.437.874 1.093.874 1.53l.218 1.749.218-1.53c0-.437.437-.656.874-.437l1.529.874-1.529-1.093c-.437-.437-.874-1.093-.874-1.53l-.218-1.749-.218 1.53z" fill="#FFFEF5"/><path d="M45.435 652.005c3.495 1.748-5.898 8.087 6.553 8.087 16.6 0 30.144-6.995 30.144-15.519 0-8.525-13.543-15.52-30.144-15.52-8.3 0-17.694 1.53-24.465 6.557-2.403 1.749-4.587 3.935-5.242 6.777-.437 1.967-.219 2.623 1.31 3.278.219 0 1.53.219 2.84.219 3.713.219 7.208.874 10.485 2.405 3.713 1.53 7.208 3.06 8.519 3.716z" fill="#221C3A"/><path d="M21.189 638.233c1.529-.874 4.15-2.186 6.116-2.841 1.529 1.53 2.621 3.06 4.15 4.809-7.427 3.934-10.703 5.464-12.45 2.841-1.093-2.404.218-3.716 2.184-4.809z" fill="#221C3A"/><path d="M22.281 638.452c1.966-1.093 3.713-1.749 5.68-2.405 1.092 1.312 2.402 2.405 3.494 3.716.437.438.874 1.093 1.53 1.53-2.185 1.093-4.37 1.312-5.898 1.968-4.15 1.748-6.335 1.53-7.864 0-1.53-1.53.874-3.716 3.058-4.809z" fill="#FFFEF5"/><path d="M44.998 619.216c.219-.218 3.714 1.749 5.243 4.372 2.184 3.716 2.184 8.088 1.965 8.525-.436.656-13.98 3.279-20.096 4.59l-10.266-8.525c2.184-2.185 19.66-6.776 23.154-8.962z" fill="#6361C2"/><path d="M23.592 627.304c4.806.875 10.922 3.279 15.946 7.432 6.771 5.684 12.669 9.399 12.669 9.399s-3.276 6.558-4.587 6.34c-12.232-7.214-28.834-12.241-27.96-19.018.437-3.934 3.495-4.153 3.932-4.153z" fill="#6361C2"/><path d="M53.954 649.6c-.874 3.06-1.966 5.683-3.276 8.306-.874 1.53-2.403 2.842-4.37 1.53-3.057-1.967-1.528-5.683 3.059-12.678 1.529 1.093 3.058 1.968 4.587 2.842z" fill="#FFFEF5"/><path d="M55.483 649.6c-1.31 2.623-3.058 5.683-4.15 7.869-.437 1.093-1.31 1.968-2.184 2.405-1.092.437-2.403 0-2.84-1.093-.655-1.967 1.092-5.683 4.587-11.148 1.31 1.093 3.058 1.093 4.587 1.967z" fill="#221C3A"/><path d="M64.44 640.638c.655 10.274-3.714 11.804-5.461 12.241-4.37.874-10.922-4.809-15.29-8.744-4.37-3.716-5.68-6.12-7.646-7.869 3.932.219 12.888 1.312 14.198 1.312 0 0-1.092-13.99.874-15.083.437-.219 1.092-.219 1.529-.219 1.966 0 3.713.219 5.68.438 1.31.218 5.46.218 5.46.218-.218.875 0 4.372 0 5.028.219 2.186.437 9.18.655 12.678z" fill="#6361C2"/><path d="M40.41 606.975c.219-2.186.656-7.651.656-7.651s.655-1.53 1.31-1.093c2.185 1.531 4.369 2.842 6.99 3.279-1.092 3.498-2.403 6.777-3.058 8.525-.437.875-6.771 12.46-6.99 13.553l-4.15-1.968c.874-.218 5.242-14.208 5.242-14.645z" fill="#FBBD9E"/><path d="M50.459 604.571c-.656 2.623-10.704 0-11.14-1.968 0-4.371 4.15-20.547 9.83-19.454.218 0 7.645.219 1.31 21.422z" fill="#FFFEF5"/><path d="M66.842 593.423c3.713 4.59-.874 11.803-1.966 15.957-1.31 4.59-.874 7.65-.656 12.896.219 7.651-24.683 3.279-20.096-5.027.656-1.093 1.093-1.967 1.311-3.279.655-2.186-1.31-9.836-2.621-18.58-.219-.656-.219-1.53-.219-2.404 0-1.093 0-1.749.219-2.623.437-1.312 2.84-4.591 4.15-5.247 4.587-1.53 18.349 6.558 19.878 8.307z" fill="#FFFEF5"/><path d="M57.012 634.736v.437s0 .219-.219.219l-12.887 7.432c-.219.218-.656.218-.874 0l-18.349-10.711c-.218 0-.218-.219-.218-.219v-.437l32.547 3.279z" fill="#E6E1E0"/><path d="M24.902 631.239l12.888-7.432c.218-.219.655-.219.873 0l18.349 10.71c.218.219.218.438 0 .438l-12.888 7.432c-.218.218-.655.218-.873 0l-18.349-10.711c-.219 0-.219-.219 0-.437z" fill="url(#paint0_linear_586_4633)"/><path opacity=".3" d="M39.319 630.364l6.116 3.498h.437l3.932-2.405c.218 0 .218-.218 0-.218l-6.116-3.498h-.437l-3.932 2.405c-.218.218-.218.218 0 .218z" fill="#E6E1E0"/><path d="M48.056 637.796l.874.437h.218l.656-.437v-.219l-.874-.437h-.218l-.656.656zm-1.31-.874l.655-.438h.218l.874.438v.218l-.655.437h-.219l-.873-.655zm-1.311-.875l.655-.437h.219l.873.437v.219l-.655.437h-.218l-.874-.656c0 .219 0 .219 0 0zm-1.31-.656l.655-.437h.218l.874.437v.219l-.655.437h-.219l-.874-.656zm-1.311-.874l.655-.437h.218l.874.437v.219l-.655.437h-.218l-.874-.656c0 .219 0 .219 0 0zm-1.31-.656l.654-.437h.219l.874.437v.219l-.656.437h-.218l-.874-.656zm-1.311-.874l.655-.437h.218l.874.437v.219l-.655.437h-.219l-.873-.656c0 .219 0 .219 0 0zm-1.311-.656l.655-.437h.219l.873.437v.219l-.655.437h-.218l-.874-.656zm-1.31-.655l.655-.438h.218l.874.438v.218l-.656.437h-.218l-.874-.655zm-1.748-1.093l.655-.438h.219l1.31.656v.219l-.655.437h-.218l-1.311-.874zm-4.806 1.311l.656-.437h.218l.874.437v.219l-.656.437h-.218l-.874-.656c-.218 0-.218 0 0 0zm-1.31-.874l.655-.437h.218l.874.437v.218l-.655.438h-.219l-.873-.656c-.219.218-.219.218 0 0zm-1.311-.656l.655-.437h.219l.873.437v.219l-.655.437h-.218l-.874-.656c-.218.219-.218 0 0 0zm1.31 2.186l.656-.437h.218l.874.437v.218l-.655.438h-.219l-.873-.656zm-1.31-.656l.655-.437h.219l.873.437v.219l-.655.437h-.218l-.874-.656zm-1.31-.874l.655-.437h.218l.874.437v.218l-.655.438h-.219l-.874-.656zm19.44 6.995l.655-.438h.219l1.31.656v.219l-.655.437h-.218l-1.31-.874c-.22.218-.22 0 0 0zm-1.31-.656l.655-.437h.218l.874.437v.218l-.655.438h-.219l-.873-.656c-.219 0-.219 0 0 0zm-1.311-.875l.655-.437h.219l.873.437v.219l-.655.437h-.218l-.874-.656c-.218.219-.218.219 0 0zm-1.31-.655l.655-.438h.218l.874.438v.218l-.656.437h-.218l-.874-.655c-.218 0-.218 0 0 0zm-1.311-.875l.655-.218h.218l.874.437v.218l-.655.438h-.219l-.873-.875c-.219.219-.219.219 0 0zm-1.31-.655l.654-.438h.219l.874.438v.218l-.656.437h-.218l-.874-.655c-.218 0-.218 0 0 0zm-1.312-.875l.656-.437h.218l.874.437v.219l-.655.437h-.219l-.873-.656c-.219.219-.219.219 0 0zm-1.31-.656l.655-.437h.219l.873.437v.219l-.655.437h-.218l-.874-.656c-.219.219-.219 0 0 0zm-1.31-.655l.655-.437h.218l.874.437v.218l-.655.437h-.219l-.874-.655c-.218 0-.218 0 0 0zm-1.311-.875l.655-.437h.218l.874.437v.219l-.655.437h-.219l-.873-.656c-.219.219-.219 0 0 0zm10.921 7.87l.656-.438h.218l.874.438v.218l-.655.437h-.219l-.874-.655zm-1.31-.875l.655-.437h.219l.873.437v.219l-.655.437h-.218l-.874-.656zm-1.31-.656l.654-.437h.219l.874.437v.219l-.656.437h-.218l-.874-.656zm-1.311-.874l.655-.437h.218l.874.437v.219l-.655.437h-.219l-.873-.656zm1.529 3.716l.655-.437h.218l.874.437v.219l-.655.437h-.219l-.873-.656zm-1.311-.874l.655-.437h.219l.873.437v.218l-.655.437h-.218l-.874-.655c0 .218 0 .218 0 0zm-1.31-.656l.655-.437h.218l.874.437v.219l-.655.437h-.219l-.874-.656zm-1.311-.874l.655-.438h.219l.873.438v.218l-.655.437h-.218l-.874-.655c0 .218 0 .218 0 0zm-8.082-4.591l.655-.437h.218l1.311.656v.218l-.655.438h-.219l-1.31-.875c-.219 0-.219 0 0 0zm9.174 2.623l.655-.437h.219l.873.437v.219l-.655.437h-.218l-.874-.656zm-1.31-.874l.655-.437h.218l.874.437v.218l-.655.438h-.219l-.874-.656zm-1.311-.656l.655-.437h.218l.874.437v.219l-.655.437h-.218l-.874-.656zm-1.31-.874l.655-.437h.218l.874.437v.218l-.656.438h-.218l-.874-.656zm-1.311-.656l.655-.437h.218l.874.437v.219l-.655.437h-.219l-.873-.656zm-1.748-1.093l.655-.437h.219l1.31.656v.218l-.655.437h-.218l-1.31-.874zm10.703 7.651l.656-.437h.218l1.31.655v.219l-.655.437h-.218l-1.31-.874c-.22 0-.22 0 0 0zm-1.31-.875l.655-.437h.218l.874.437v.219l-.655.437h-.218l-.874-.656c-.219.219-.219 0 0 0zm-1.31-.655l.654-.438h.219l.874.438v.218l-.656.437h-.218l-.874-.655c-.218 0-.218 0 0 0zm-1.311-.875l.655-.437h.218l.874.437v.219l-.655.437h-.219l-.873-.656c-.219.219-.219 0 0 0zm-1.311-.656l.655-.437h.219l.873.437v.219l-.655.437h-.218l-.874-.656c-.218 0-.218 0 0 0zm-1.31-.874l.655-.437h.218l.874.437v.219l-.656.437h-.218l-.874-.656c-.218.219-.218 0 0 0zm-1.311-.656l.655-.437h.219l.873.437v.219l-.655.437h-.218l-.874-.656c-.219 0-.219 0 0 0zm-1.31-.874l.654-.437h.219l.874.437v.219l-.656.437h-.218l-.874-.656c-.218.219-.218.219 0 0zm-1.312-.656l.656-.437h.218l.874.437v.219l-.655.437h-.219l-.873-.656c-.219 0-.219 0 0 0zm-1.31-.874l.655-.437h.219l.873.437v.218l-.655.438h-.218l-.874-.656c-.218.218-.218.218 0 0zm2.184-2.842l.656-.437h.218l.874.437v.219l-.656.437h-.218l-.874-.656c0 .219 0 .219 0 0zm-1.31-.656l.655-.437h.218l.874.437v.219l-.655.437h-.219l-.873-.656zm-1.311-.655l.655-.438h.219l.873.438v.218l-.655.437h-.218l-.874-.655zm-1.092.655l.655-.437h.219l.873.437v.219l-.655.437h-.218l-.874-.656c-.219 0-.219 0 0 0z" fill="#FFFEF5"/><path d="M53.299 637.359l-.437.219h-.218s0-.219.218-.219l.437-.218v.218zm-1.092.656l-.437.219h-.219s0-.219.219-.219l.437-.219s.218 0 0 .219zm-3.058 1.749l1.529-.874v-.219l-1.53.874v.219z" fill="#BDB7B5"/><path d="M49.149 595.609c.437.656 1.092 1.093 1.966 1.311 1.529.438 3.058.219 4.368-.437 1.748-1.093 3.277-3.06 3.059-5.902 0-.218-.219-.655-.437-.874-.874-.874-1.966-2.623-2.84-5.902-.218-1.093-1.31-1.53-2.184-.874-2.84 2.186-5.024 6.339-4.806 8.306-.218.874 0 3.06.874 4.372z" fill="#F2A883"/><path d="M38.882 635.173c.218-1.093.655-2.404 1.092-3.279-.437 0-.873-.218-.437-.655.437-.875 1.311-2.186 2.403-3.061.219-.218.656-.437 1.092-.655.219-.219.656-.219.874-.219.655 0 1.092 0 1.748-.219 3.713-2.623 10.048-8.743 12.013-10.492a1.67 1.67 0 00.437-1.093c0-2.186-.218-4.372-.218-6.557 0-.875.874-1.531 1.747-1.093 2.403 1.093 4.806 2.185 7.209 2.404-.656 3.716-1.53 6.995-1.966 8.744-.219.874-.655 1.748-1.53 2.404-3.057 2.623-10.92 6.121-15.071 8.525-1.53.874-3.495 5.902-4.587 6.558-.874.655-2.84 0-4.15-.219-.438.219-.656-.437-.656-1.093z" fill="#FBBD9E"/><path d="M68.37 613.533c-.436 2.623-10.484 1.311-11.14-.656-.436-4.372 1.53-20.984 7.428-20.547-.219.218 7.208-.437 3.713 21.203z" fill="#FFFEF5"/><path d="M32.766 624.681c1.529-1.53 2.402-2.623 2.62-2.842 1.967-.218 3.277.437 4.151 1.968-.218.655-.655 2.623-.874 3.278-.436 1.312-.655 5.902-1.747 6.339-1.092.219-5.898-1.311-5.898-3.278.219 0 0-3.716 1.748-5.465z" fill="#FBBD9E"/><path d="M43.251 642.824l-4.368-12.46.218-.218 4.15 12.678c.219.218.219.218 0 0z" fill="#E6E1E0"/><path d="M19.66 618.998h.437l17.912 10.273c.437.219.874.656.874 1.093l-.219.219c-.218-.437-.655-.875-.873-1.093l-17.912-10.274c0-.218-.219-.218-.219-.218z" fill="url(#paint1_linear_586_4633)"/><path d="M20.097 619.216L38.01 629.49c.437.219.873.656.873 1.093l4.37 12.459c.218.438 0 .438-.438.219l-17.911-10.274c-.437-.218-.874-.655-.874-1.092l-4.369-12.46c-.218-.437 0-.437.437-.219z" fill="#D9D5D4"/><path d="M29.49 630.583c0 .656.655 1.53 1.529 1.967.874.437 1.529.437 1.529-.218 0-.656-.655-1.531-1.53-1.968-.873-.437-1.528-.437-1.528.219z" fill="#C8C3C2"/><path d="M44.78 579.215c1.31-2.186 3.058-3.279 5.68-3.498.655 0 1.965.656 2.62.875 2.404.874 3.059 5.027 3.059 7.432.218 2.841 0 6.12-1.966 8.525-3.714 4.371-7.864 5.027-8.52 2.186 0-.219 0-.656-.218-.656h-.218c-.437-.219-.437-.656-.437-1.093v-1.968c0-.655-.655-1.092-.874-1.748-.873-1.312-.655-3.498-.655-4.809.219-1.967.655-3.716 1.53-5.246z" fill="#FBBD9E"/><path d="M44.343 577.684c2.621-2.841 6.335-3.278 8.956-1.53 6.553 1.53 6.553 9.181 2.621 14.209.437-1.312-1.31-1.968-1.529-1.531-.655 1.093-.874 2.186-1.529 2.186-.655 0-.218-1.093-1.747-1.748-.219-.219-5.024-.219-7.427-1.968-.219-.218-.219-.437-.437-.655-.437-1.312-2.184-5.247 1.092-8.963z" fill="#6361C2"/><path d="M54.61 587.958c1.092-1.312 3.057.437 0 3.934-.219.438-.656.656-1.093.438-.873-.656.655-3.716 1.092-4.372z" fill="#FBBD9E"/><path d="M192.223 432.323c-2.184 6.12-8.3 6.12-9.611 9.836-.218.437-.218.656-.655.875-.874.218-4.587-4.372-3.713-7.87.218-1.093.873-1.53 1.31-2.623 1.092-2.186 4.806-8.306 8.738-7.432 3.058.437 5.024 4.153 3.931 7.214z" fill="#221C3A"/><path d="M150.939 518.884c.218-.218 1.311-3.497 1.529-5.902.219-1.092 0-2.404 0-3.716 0-.437 3.713.219 3.713.219 0 .656 0 1.312.219 1.749.655.218 1.092.656 1.529 1.311.218.875.218 1.749 0 2.405-.218.874-.655 1.53-1.092 2.186-.219.655-.656 1.311-.874 2.186-.218.874-.437 1.967-.874 2.841-.655 1.312-3.058 2.405-4.587 2.186-1.092-.218-2.403-.656-2.184-1.967.437-1.53 1.747-1.968 2.621-3.498z" fill="#FFFEF5"/><path d="M149.847 487.845c-.219-1.312-.219-2.842.218-4.153 1.748-6.121 11.14-15.083 15.291-18.799.655-.656 1.31-1.312 1.747-2.405l1.092-3.06c15.072 2.842 9.175 12.023 1.529 18.143-8.3 6.776-11.577 10.492-11.577 10.492s2.84 5.902 1.093 13.116c-.437 1.53-1.093 3.06-1.311 4.809-.437 1.967-.874 4.371-.874 5.246 0 1.311-4.15 1.967-4.15.218-.437 0-1.529-12.896-3.058-23.607z" fill="#221C3A"/><path d="M133.901 501.178c.219-.218 2.84-2.404 4.151-4.59.436-.874 1.092-2.186 1.747-3.279.218-.437 3.277 1.749 3.277 1.749-.219.656-.437 1.093-.437 1.53.437.437.655 1.093.655 1.967 0 .875-.655 1.531-1.092 2.186-.656.656-1.311 1.093-1.966 1.53-.655.438-1.092 1.093-1.748 1.531-.655.655-1.31 1.53-1.966 2.185-1.092 1.093-3.713.875-5.024 0-.873-.655-1.965-1.53-1.092-2.841.656-1.093 2.185-.875 3.495-1.968z" fill="#FFFEF5"/><path d="M146.57 473.199c.655-.656 1.311-1.093 2.184-1.311.656-.219 15.946.437 20.97-.656l10.485-5.683c1.966-.438 3.932-1.093 4.369 3.278.437 4.591-1.092 9.181-4.806 12.023-2.621 2.186-6.116 3.279-9.392 3.279-2.622 0-17.038-2.623-18.349-2.186-1.311.218-2.403 5.464-8.737 15.082-1.093 1.531-5.461 0-4.806-1.967 3.932-8.743 6.116-19.891 8.082-21.859z" fill="#221C3A"/><path d="M152.905 465.33c-.437-.875-.437-1.968-.655-3.06 0-.875.218-1.749 1.092-1.968.655-.218 1.529-.437 3.276-1.967 3.714-3.279 9.83-8.962 9.83-8.962.874-4.809-.218-8.744 1.311-13.334.436-1.53 2.184-2.623 3.931-1.53l-.218 4.372c-1.311 4.371-.655 9.617-1.311 14.864-.218 1.748-8.3 5.683-11.14 6.994-2.403 1.093-2.839 1.968-5.242 4.154l-.874.437z" fill="#FBBD9E"/><path d="M186.98 442.597c1.093 1.093 1.53 2.623.874 4.153-.874 1.967-5.242 6.995-6.116 11.585-.218 1.312-.437 2.405 2.184 6.558 3.932 6.12-19.659 5.683-17.256-1.968 2.84-8.962-2.403-10.929-2.403-13.771 0-2.186 2.185-2.841 3.058-4.809 1.311-2.841-.437-6.994 1.529-9.399 3.058-3.716 17.912 7.214 18.13 7.651z" fill="#6361C2"/><path d="M173.001 437.788a10.167 10.167 0 001.31-5.028l7.864-.656c-1.092 2.186-1.311 4.154-.656 6.34.656 3.716-10.266 3.06-8.518-.656z" fill="#F1A782"/><path d="M169.069 472.981l-4.805-7.651c0-.218-.219-.218-.437-.437l-.219-.219-12.669-7.213h-.218l-.219.219h.219l12.669 7.213.218.219.437.437 5.024 7.432c-.218.218-.218.437-.218.437l.218-.437z" fill="#FFFEF5"/><path d="M150.721 457.68l12.669 7.213.655.656 4.806 7.65c.218.219 0 .219-.219 0l-12.669-7.213-.655-.656-4.806-7.65c0-.219 0-.219.219 0z" fill="#E3DDDA"/><path d="M161.205 467.953c-.437-1.749 3.058.656 4.369.874.874 0 .874-.437.437-.655l-1.311-2.186h.219c.655.218 1.092.218 2.402.874 1.093.437 1.966 1.749 3.059 1.967 0 0 .436 0 .873-.218 2.84-2.623 10.048-8.525 10.048-8.525s.874-11.585 1.748-13.99c1.747-5.683 6.553-3.06 6.334.656 0 1.093-1.965 11.148-3.058 15.083-.873 3.497-8.519 5.683-14.416 10.055-2.403 1.748-4.151 1.748-4.806 1.53a20.269 20.269 0 01-4.15-1.53c-1.092-.656-1.311-1.093-1.092-1.312-.656-.656-.656-1.53-.219-1.311-1.092-.875-1.092-1.531-.437-1.312z" fill="#FBBD9E"/><path d="M156.837 464.893c0-.219 0-.656-.219-.874-.436-.656-1.092-.875-1.747-1.093-.874-.438-1.311-.656-1.966-1.312l-.655-.874c-.437.656-.437 1.093-.219 1.967.219 1.093.437 2.623 1.092 3.279.874.874 2.403 1.749 2.84 1.093.219.218.437.218.437.218.437 0 .437-.437.437-.655.218 0 .655 0 .655-.438 0-.874-.655-1.311-.655-1.311z" fill="#FABC9D"/><path d="M157.492 464.455c.218.219.655.875 1.092 1.093.437.219.655.219.437 0-.219-.218-.656-.874-1.092-1.093-.437-.218-.656-.218-.437 0z" fill="#C2BCBA"/><path d="M175.185 436.694c-1.529-.218-4.368-.655-4.587-1.967-.218-.874.874-2.186.656-3.279-.219-.437-.219-.655.218-1.093.655-.655 1.092-1.093 1.529-1.967.655-1.311.219-2.404 3.495-4.809.874-.656 1.311-.874 5.243 0 .873.219 1.092.437 1.747 1.093 1.092 1.53 1.311 1.967 1.092 3.935 0 1.093-.218 1.967-.437 3.06-.437 1.311-1.092 2.404-2.184 3.279-1.529.656-5.024 1.967-6.772 1.748z" fill="#FCBE9F"/><path d="M178.243 435.165c.874-.875 3.932-.219 3.932-.219 0 .219-1.747 1.311-2.402 1.53.873.656 9.611-1.53 8.737-8.962-.437-5.028-5.242-7.213-8.956-6.558-1.747.219-3.713 1.53-4.15 3.279.437-.218.437.437.655.874.437 1.093 1.092 2.842 1.529 5.028 0 .874 0 4.153.655 5.028z" fill="#221C3A"/><path d="M179.773 434.29c-1.311.219-2.403.874-2.185 1.53 0 .656 1.311 1.093 2.622.656 1.31-.219 2.402-.874 2.184-1.53 0-.656-1.311-.875-2.621-.656z" fill="#FCBE9F"/><path d="M270.859 655.72c-.437 1.093-.874 1.968-1.311 3.06-1.092 2.842-1.31 5.902-1.31 8.963 0 .218 0 .437-.219.437h-.218c-2.84.437-5.024-3.498-6.335-5.465-1.31-2.186-2.621-5.465-2.184-8.088.437-3.497 2.403-7.869 6.335-7.869 4.805-.437 6.553 5.028 5.242 8.962z" fill="#6361C2"/><path d="M212.974 742.5c.437-1.093 7.427-7.651 7.645-9.399l3.932.437c-.655.437 0 1.311.437 1.967.437.656.437 1.093.437 1.967 0 1.53-1.748 3.061-2.84 4.372-1.966 2.405-3.932 4.153-5.024 4.591-1.529.655-3.932.437-4.587-1.312-.437-.656-.437-1.749 0-2.623zm13.325-1.749c.218-.437.437-.874.437-1.312l4.587-.655c.655 0 1.31.218 1.529.874.655 1.093 1.31 2.405 0 3.497-.437.438-6.116 5.902-8.301 6.558-3.276 1.093-7.208-.437-5.679-3.279.655-1.53 6.99-5.464 7.427-5.683z" fill="#85B208"/><path d="M213.411 741.188c.436-1.093 6.989-7.869 7.208-9.618l3.932.438c-.656.437-.437 1.53 0 2.185.437.656.655 1.312.655 2.186 0 1.53-1.529 2.623-2.84 3.935-1.965 2.404-3.931 4.153-5.024 4.59-1.529.656-3.495.875-4.15-.874-.218-.874 0-1.967.219-2.842zm13.761-3.934l3.713-.656c.219.437 3.714 3.498 1.748 5.028-.437.437-6.116 5.902-8.301 6.557-3.276 1.093-6.99-.218-5.461-3.06 1.748-2.404 7.427-4.59 8.301-7.869z" fill="#FFFEF5"/><path d="M219.745 732.445c1.529-3.716 5.243-14.646 6.553-19.892.219-.656.437-1.53.437-3.06.219-1.312.655-2.623 1.748-3.716 8.3-8.306 21.625-12.678 24.901-17.706l4.369 15.083c-6.335 4.59-22.717 7.651-23.591 7.869.218 4.59-.437 9.399-3.058 13.115-1.966 2.405-6.116 8.525-6.335 9.4-.218 1.311-5.679.656-5.024-1.093z" fill="#6361C2"/><path d="M238.094 714.958c.437-1.312 1.311-2.623 2.403-3.497 4.369-3.498 14.854-10.93 15.072-11.586.437-1.093-.218-2.186-.874-3.06a26.678 26.678 0 01-1.529-3.716c-.218-.656-.437-1.311-.218-2.186.218-1.53 1.966-2.841 1.092-4.371l15.29 3.497c3.277 2.842 3.058 11.148-.436 15.301-1.966 2.186-5.461 4.153-8.083 5.683-3.931 2.405-9.174 5.028-13.543 6.995-4.15 8.307-8.082 9.181-15.29 20.548-.874 1.967-5.898-.219-5.024-1.531 12.451-19.017 9.83-17.705 11.14-22.077z" fill="#6361C2"/><path d="M240.06 693.536c.655-2.842 6.335-14.646 7.208-16.613 0 0 1.748-14.864 3.714-17.705.655-1.093 1.966-1.749 3.276-1.312 1.966.656 1.966 1.967 1.529 3.716-.218 1.749-2.402 16.831-3.276 18.361-1.966 3.498-8.301 15.302-8.519 15.52-.655 1.749-4.587 0-3.932-1.967z" fill="#F585A4"/><path d="M267.583 665.338c2.402 1.967 2.184 3.935 1.31 6.558-.874 2.841-2.184 5.465-1.966 8.525.219 3.06 2.185 5.902 3.277 8.743.218.438.437 1.093.437 1.749 0 1.749-1.748 2.623-3.277 3.279-4.369 1.311-9.611.218-13.106-2.842-.655-.437-1.311-1.093-1.529-1.967-.655-2.405 2.184-4.59 1.529-6.776-.437-1.749-2.403-2.405-3.713-3.716-1.093-1.093-1.748-2.623-1.529-4.154.218-3.06 3.276-5.464 3.713-8.524.218-1.531-.219-3.279-.219-4.809 0-1.531.437-3.279 2.403-3.061 1.966.219 4.587 2.405 6.335 3.279 1.966.875 4.369 1.967 6.335 3.716z" fill="#F585A4"/><path d="M255.569 660.748c.437-.219.874-.437 1.529-.656.437 0 2.84-2.404 3.058-2.186 1.092 1.53.437 2.623 1.966 4.372 2.84 3.06-5.461 9.181-7.427 3.279-.218-.875-.655-1.53-.655-2.405-.437-.874.655-1.748 1.529-2.404z" fill="#F1A782"/><path d="M262.122 648.507c-.437.656-.219 1.749.436 2.404.874.656 1.966.875 2.403.219.437-.656.219-1.749-.437-2.404-.655-.875-1.966-.875-2.402-.219z" fill="#85B208"/><path d="M251.419 662.497c-.219-.875-.219-1.749 0-2.405.436-1.967-1.093-4.809.655-6.995 1.747-2.404 3.276-1.967 4.805-1.53 2.403.874 8.519 3.06 7.646 5.465-2.185 5.683-5.024 7.432-6.772 8.088-1.31.655-4.15 2.404-5.242.874-.437-.437-.437-1.312-.656-1.967-.436-.438-.436-1.093-.436-1.53z" fill="#FABC9D"/><path d="M252.947 650.693c5.243-6.339 13.98-2.186 13.325 4.372-.656 5.901-4.806 7.65-5.68 8.087.219-.437 1.311-1.967 1.311-2.623 0-.655-.655-.874-1.092-.655-.437.218-.655.437-.874.655-.218.219-1.092 1.749-1.092.656 0-.874.218-1.749-.437-2.186-.437-.218-.655-.437-1.092-.437-1.092-.437-1.966-1.312-2.84-2.404-.655-.875-2.403-.875-2.839-1.749-.656-1.093.655-3.06 1.31-3.716z" fill="#6361C2"/><path d="M252.292 699.438c2.622-2.623 12.888-12.678 12.888-12.678 0-5.683-2.184-20.11 3.713-20.11 1.748 0 3.277 1.967 3.714 3.716.437 1.311.437 17.268-1.311 19.236-2.403 2.841-10.703 9.618-16.164 12.241-1.747.874-4.15-1.093-2.84-2.405z" fill="#F585A4"/><path d="M262.341 660.529c0 1.312-1.092 1.967-2.185 2.405l-1.092-1.312c1.529-3.06 3.277-2.186 3.277-1.093z" fill="#FABC9D"/><path d="M257.098 705.559v.437s0 .219-.219.219l-11.358 6.557c-.219.219-.437.219-.656 0l-16.164-9.399-.218-.219v-.437l28.615 2.842z" fill="#ADA4B8"/><path d="M228.701 702.498l11.359-6.557c.218-.219.437-.219.655 0l16.164 9.399c.219.219.219.219 0 .437l-11.358 6.558c-.219.219-.437.219-.656 0l-16.164-9.399c-.218-.219-.218-.438 0-.438z" fill="#FFFEF5"/><path d="M249.016 708.182l.655.437h.219l.655-.437v-.219l-.655-.437h-.219l-.655.656zm-1.092-.874l.655-.438h.218l.656.438v.218l-.656.437h-.218l-.655-.655zm-1.092-.656l.655-.437h.218l.656.437v.218l-.656.438h-.218l-.655-.656c-.219.218-.219 0 0 0zm-1.311-.656l.655-.437h.219l.655.437v.219l-.655.437h-.219l-.655-.656zm-1.092-.656l.655-.437h.218l.656.437v.219l-.656.437h-.218l-.655-.656zm-1.092-.655l.655-.438h.218l.656.438v.218l-.656.437h-.218l-.655-.655zm-1.093-.656l.656-.437h.218l.655.437v.218l-.655.438h-.218l-.656-.656c-.218 0-.218 0 0 0zm-1.31-.656l.655-.437h.219l.655.437v.219l-.655.437h-.219l-.655-.656zm-1.092-.656l.655-.437h.218l.656.437v.219l-.656.437h-.218l-.655-.656zm-1.529-.874l.655-.437h.218l1.092.656v.218l-.655.437h-.218l-1.092-.874zm-4.369 1.093l.655-.437h.219l.655.437v.218l-.655.438h-.219l-.655-.656zm-1.092-.656l.655-.437h.218l.656.437v.219l-.656.437h-.218l-.655-.656c-.219.219-.219 0 0 0zm-1.311-.656l.655-.437h.219l.655.437v.219l-.655.437h-.219l-.655-.656zm1.311 1.968l.655-.438h.218l.656.438v.218l-.656.437h-.218l-.655-.655zm-1.093-.656l.656-.437h.218l.656.437v.218l-.656.438h-.218l-.656-.656zm-1.092-.656l.656-.437h.218l.655.437v.219l-.655.437h-.218l-.656-.656c-.218 0-.218 0 0 0zm17.038 6.121l.656-.438h.218l1.092.656v.219l-.655.437h-.219l-1.092-.874c-.218.218-.218 0 0 0zm-1.31-.656l.655-.437h.218l.656.437v.218l-.656.438h-.218l-.655-.656zm-1.093-.656l.656-.437h.218l.656.437v.219l-.656.437h-.218l-.656-.656zm-1.092-.656l.656-.437h.218l.655.437v.219l-.655.437h-.218l-.656-.656zm-1.092-.655l.655-.438h.219l.655.438v.218l-.655.437h-.219l-.655-.655c-.218 0-.218 0 0 0zm-1.31-.656l.655-.437h.218l.656.437v.218l-.656.438h-.218l-.655-.656zm-1.093-.656l.656-.437h.218l.655.437v.219l-.655.437h-.218l-.656-.656zm-1.092-.656l.655-.437h.219l.655.437v.219l-.655.437h-.219l-.655-.656c-.218 0-.218 0 0 0zm-1.31-.656l.655-.437h.218l.656.437v.219l-.656.437h-.218l-.655-.656zm-1.093-.655l.656-.437h.218l.655.437v.218l-.655.437h-.218l-.656-.655zm9.83 6.776l.655-.437h.219l.655.437v.219l-.655.437h-.219l-.655-.656c-.218 0-.218 0 0 0zm-1.311-.656l.656-.437h.218l.655.437v.219l-.655.437h-.218l-.656-.656zm-1.092-.656l.655-.437h.219l.655.437v.219l-.655.437h-.219l-.655-.656zm-1.092-.655l.655-.438h.219l.655.438v.218l-.655.437h-.219l-.655-.655zm1.311 3.06l.655-.437h.218l.656.437v.219l-.656.437h-.218l-.655-.656c0 .218 0 .218 0 0zm-1.093-.656l.656-.437h.218l.655.437v.219l-.655.437h-.218l-.656-.656c0 .219 0 .219 0 0zm-1.092-.656l.656-.437h.218l.655.437v.219l-.655.437h-.218l-.656-.656c-.218.219-.218.219 0 0zm-1.31-.655l.655-.438h.218l.656.438v.218l-.656.437h-.218l-.655-.655zm-7.209-4.154l.656-.437h.218l1.092.656v.219l-.655.437h-.219l-1.092-.875c-.218 0-.218 0 0 0zm8.301 2.405l.655-.437h.219l.655.437v.218l-.655.438h-.219l-.655-.656c-.219 0-.219 0 0 0zm-1.311-.656l.656-.437h.218l.655.437v.219l-.655.437h-.218l-.656-.656zm-1.092-.656l.655-.437h.219l.655.437v.219l-.655.437h-.219l-.655-.656zm-1.092-.874l.655-.437h.219l.655.437v.219l-.655.437h-.219l-.655-.656c-.219.219-.219.219 0 0zm-1.311-.656l.656-.437h.218l.655.437v.219l-.655.437h-.218l-.656-.656c0 .219 0 .219 0 0zm-1.529-.874l.655-.437h.219l1.092.655v.219l-.655.437h-.219l-1.092-.874c0 .218 0 .218 0 0zm9.393 6.776l.655-.437h.219l1.092.656v.218l-.655.438h-.219l-1.092-.875zm-1.092-.656l.655-.437h.218l.656.437v.219l-.656.437h-.218l-.655-.656zm-1.092-.655l.655-.438h.218l.656.438v.218l-.656.437h-.218l-.655-.655c-.219 0-.219 0 0 0zm-1.311-.875l.655-.437h.219l.655.437v.219l-.655.437h-.219l-.655-.656c0 .219 0 .219 0 0zm-1.092-.656l.655-.437h.219l.655.437v.219l-.655.437h-.219l-.655-.656c0 .219 0 .219 0 0zm-1.092-.655l.655-.437h.218l.656.437v.218l-.656.437h-.218l-.655-.655c-.219.218-.219.218 0 0zm-1.311-.656l.655-.437h.219l.655.437v.219l-.655.437h-.219l-.655-.656zm-1.092-.656l.655-.437h.219l.655.437v.219l-.655.437h-.219l-.655-.656zm-1.092-.656l.655-.437h.218l.656.437v.219l-.656.437h-.218l-.655-.656c-.219.219-.219 0 0 0zm-1.311-.655l.655-.438h.219l.655.438v.218l-.655.437h-.219l-.655-.655zm2.184-2.405l.656-.437h.218l.655.437v.219l-.655.437h-.218l-.656-.656c-.218 0-.218 0 0 0zm-1.31-.656l.655-.437h.218l.656.437v.219l-.656.437h-.218l-.655-.656zm-1.092-.655l.655-.438h.218l.656.438v.218l-.656.437h-.218l-.655-.655zm-1.093.437l.656-.437h.218l.655.437v.218l-.655.438h-.218l-.656-.656c0 .218 0 .218 0 0z" fill="#DFD7E2"/><path d="M245.52 706.651c-.218-.218-.218-.218 0 0-.436-.437-.655-.655-.873-1.093-.437-1.53.873-3.278 1.747-4.371a2.633 2.633 0 011.092-1.093c.437-.219.874-.219 1.311-.219 1.092-.218 2.403.219 3.713 0 1.093-.218 3.277 1.749 2.622 2.405-1.966 1.748-4.369 1.967-4.806 2.185-.655.438-1.311 1.531-1.529 2.186-.218.438-.218.875-.655 1.093-.219.219-.874.437-1.093 0l-.436-.437s-.219-.218-.437-.218c-.437-.438-.656-.438-.656-.438zm-6.99-9.399c.874-1.312 1.311-2.404 1.748-3.06.655-1.312 3.495-.437 3.276.874 0 .437-.873 3.279-1.092 3.716-.218.874-.437 4.372-1.31 4.59-.874.219-4.369-.655-4.151-2.185 0 0 .437-2.405 1.529-3.935z" fill="#FABC9D"/><path d="M244.865 712.772l-3.931-10.929.218-.219 3.713 11.148c.219 0 .219 0 0 0z" fill="#ADA4B8"/><path d="M223.896 691.569h.436l15.728 9.181c.437.218.655.655.874.874l-.219.219c-.218-.219-.437-.656-.874-.875l-15.727-9.181c0-.218-.218-.218-.218-.218z" fill="#FFFEF5"/><path d="M224.333 691.788l15.727 9.18c.437.219.655.656.874.875l3.931 10.929c.219.219 0 .437-.436.219l-15.728-9.181c-.437-.219-.655-.656-.873-.874l-3.932-10.93c-.219-.437 0-.437.437-.218zm183.923 45.466c2.621 2.186 12.451 12.46-17.912 18.799.874-6.121 4.806-17.05-5.898-18.362-6.99-.874-20.969-.656-20.969-.656l4.805-5.246c11.359-.655 34.95 1.093 39.974 5.465z" fill="#221C3A"/><path d="M371.777 735.942c-.219.875-.874 1.312-1.529 1.749-.656.437-2.622.874-3.495 1.093-3.058 1.311-4.151 2.623-7.646 3.497-1.529.437-3.058-.218-3.713-1.748-.218-.438-.218-.656-.218-1.093v-.875c0-1.093.873-1.53 2.839-2.186 1.529-.655 3.277-1.311 4.806-1.967.655-.218 1.529-.656 1.747-1.311.219-.219.219-.656.437-.875 0 0 .219-.218.437-.218 1.092-.438 3.713-1.312 4.806-.438.437.438 1.092 1.531 1.31 1.968.219 1.093.437 1.53.219 2.404z" fill="#221C3A"/><path d="M371.777 734.849c-.219.875-.874 1.312-1.529 1.749-.655.437-2.621.874-3.495 1.093-3.058 1.312-4.15 2.623-7.645 3.497-1.529.438-3.058-.218-3.714-1.748-.655-1.312-.437-2.842 2.621-3.935 1.53-.656 3.059-1.53 4.806-2.186.655-.218 1.748-.656 2.184-1.967 0-.219 3.932-1.967 5.024-.874.437.437.656 1.093.874 1.53.437 1.093 1.092 1.967.874 2.841z" fill="#FFFEF5"/><path d="M388.159 751.681c2.622-.656 5.024-1.749 6.99-3.716 0 0 0 .218.219.218.218.656.437 1.093.218 2.186-.218 1.312-.437 3.498-1.092 7.651-.218 1.53-.437 3.06-1.529 3.935-1.529 1.311-5.679 1.092-6.553.218-.218-.218-.437-.656-.437-.874v-1.53l2.184-8.088z" fill="#221C3A"/><path d="M395.368 747.965c.655 1.311.219 1.311-.655 8.743-.219 1.531-.437 3.061-1.529 3.935-1.529 1.312-5.68 1.093-6.553.219-.437-.438-.437-1.312-.219-1.968.656-3.06 1.529-6.12 2.185-8.962.436-1.967.218-2.841 0-5.246 0-.437 5.897-.219 5.897.219-.218 2.404.437 2.404.874 3.06zm-22.062-94.431c.656-.218 1.311.219 1.311.875.218 2.186-1.092 7.65-3.058 9.18l-4.806 4.591 1.311 12.897c.218 1.53-3.932 2.404-4.369.874l-3.058-15.301c-.218-.656-.437-1.53.218-2.405 2.185-2.404 7.646-9.18 12.451-10.711z" fill="#FFFEF5"/><path d="M364.35 684.355c0-.218 0-1.093.218-1.311v-.875c-.218-.874 3.277-1.748 3.495-.656l.219.219c.437.656 1.747.874 2.184 1.749.437.874.437 1.53.655 2.186 0 .655 1.093 2.623.219 3.278-.874.656-3.058 1.312-3.932.656-.218-.218-.874-.655-1.092-.874-1.092-.656-1.966-2.623-1.966-4.372z" fill="#FFC0A1"/><path d="M365.88 711.679c.437-2.185-.656-9.617 1.966-20.765 0 0 6.334-21.422 20.969-4.372 2.185 7.65 5.68 18.798 5.68 36.504 1.966 8.088 1.529 9.399.218 23.826-.218 1.967-6.116 2.405-6.553.219-2.403-18.58-2.403-19.017-3.495-22.515-1.747-5.683-3.713-12.897-5.242-19.891 0-.438-.874-.656-1.093-.438l-3.494 10.93s-.219 3.497-.874 5.683c-.656 2.405-2.403 7.214-2.621 10.274-.437 3.06-6.99 2.404-6.99.218.218.219 1.092-16.831 1.529-19.673z" fill="#6361C2"/><path d="M395.368 672.115c-1.747 2.623-5.679 6.557-6.334 12.241-.219 1.967.655 5.683.655 5.683 1.748 5.246-22.28 4.59-20.751-2.404 1.31-6.121-1.092-27.543 3.276-33.007.874-1.093.656-1.093 4.369-1.093 1.747 0 5.242.218 8.3 1.53 5.68 2.404 11.796 7.432 12.233 12.022.437 1.312-.437 3.498-1.748 5.028z" fill="#FFFEF5"/><path d="M392.746 698.126c-.218.219-1.092.219-1.31.219-.656 0-1.529 0-1.966-.437-.219 0-.219-.219-.437-.437 0-.219-.218-.438 0-.438 0-.218.437-.437.655-.437.437-.218.874-.437 1.311-.218.437 0 .655.437 1.092.655.219 0 .437.219.655.438.219.218.219.437.219.655-.219-.218-.219-.218-.219 0z" fill="#F1A782"/><path d="M393.62 694.847c0-.218.437-1.092.437-1.092l.437-.875c.437-.874-2.184-2.841-3.058-1.967l-.218.218c-.656.438-1.966.219-2.622.656-.873.656-1.092 1.093-1.529 1.749-.218.437-.873 1.093-.873 1.749 0 .437.218.437.437.655.218.219.218.438.436.656.219.219.437.219.874.437.219 0 .437.438.655.438.437.218.656.218.874.218.219.219.437.437 1.092.437.219-.437.656-.655 1.093-.874.655-.437 1.31-1.312 1.965-2.405z" fill="#FFC0A1"/><path d="M394.931 662.059c2.185 2.842 8.956 15.52 10.922 19.236.437.656.437 1.53 0 2.186-1.747 2.842-8.301 7.651-11.577 10.711-1.092.874-4.806-2.842-3.713-3.498 2.621-2.623 5.679-6.12 7.863-8.525 0 0-5.461-6.557-7.863-10.055-2.622-3.497 2.184-13.115 4.368-10.055z" fill="#FFFEF5"/><path d="M385.32 653.753l1.311 1.312c.655.656.874 1.749.655 2.623-1.092 4.59-5.024 6.339-5.024 6.339l-2.621-3.716-.218-1.53 5.897-5.028z" fill="#E8E3E7"/><path d="M379.423 652.442c1.092-.219 1.966 1.967 1.747 3.06-.436 1.967-.873 3.934-2.402 4.372-1.093.437-3.714 1.311-3.714 1.311 0-.219.219-.437.219-.874l1.31-3.279c.219-.656.656-1.53 1.092-2.186.219-.656.656-1.312 1.093-1.967.218-.219.436-.437.655-.437z" fill="#E8E3E7"/><path d="M376.583 659.437c.218.874.874 1.53 1.529 2.185l.219-1.093a3.39 3.39 0 01-1.311-1.748c-.218.218-.437.656-.437.656zm5.461 1.967c-.655.437-1.311.874-2.184.874l.218-1.093c.655 0 1.311-.218 1.966-.437v.656z" fill="#6361C2"/><path d="M377.238 652.442c3.277-.437 6.772-2.186 9.612-3.498-1.093 2.405-.656 5.246-.437 6.558.218 1.749-.656 5.028-4.369 5.028-.874 0-1.311-.438-1.966-.656l-.874 1.967-.437-2.404c-1.31-.219-2.184-1.312-1.965-2.186.218-1.53.436-3.498.436-4.809z" fill="#F1A782"/><path d="M382.481 662.934l-2.184-3.279c3.494.437 6.553-2.186 6.116-5.683l.655 1.093c.437.655.437 1.53.437 2.404-.874 2.186-1.966 4.372-5.024 5.465zm-5.461-7.432c0 .219.219 2.623 1.748 3.716l-3.277 1.093s.655-2.842 1.529-4.809z" fill="#FFFEF5"/><path d="M380.733 661.185c.219.656-.218 2.186-1.092 2.405-1.31.218-2.621-.874-2.184-3.279 0-.219.655.219 1.529.437.874.219 1.529.219 1.747.437z" fill="#6361C2"/><path d="M375.271 646.103v-.875c2.84-.656 6.772.875 8.956 2.623 1.092.875 1.748 1.749 3.058 2.186-.218.656-.655 1.093-.874 1.53-.873 1.53-1.966 3.716-3.276 5.028-1.311.874-2.621 1.311-4.15 1.967-1.529.656-3.277.219-3.495-1.967-.219-1.53-.437-2.842-.437-4.153 0-1.093 0-1.968-.219-3.061-.218-.874.219-1.311.437-2.185v-1.093z" fill="#FFC0A1"/><path d="M377.893 654.628c.437.218.874.218 1.092.218 1.966-.218 3.277-1.311 3.932-3.06v-.437c.218 0 .437-.219.655-.437.219-.219.219-.875.655-1.093.219-.219.874 0 .874.218.219.219.219.219.437.219-.655.874-1.311 1.748-1.311 2.841 0 .438.437.656.656.875-.656.874-1.092 1.967-1.966 2.623-1.311.874-2.621 1.311-4.15 1.967-1.529.656-3.277.219-3.495-1.967 0-.875-.219-1.749-.219-2.405 1.311-.218 2.185.219 2.84.438z" fill="#AC8979"/><path d="M387.722 649.381c-.218.656-.655.438-1.092.438-.437.218-1.092.437-1.311.874-.437.656-.655 1.311-1.092 1.749-.218.437-.655.655-1.092.437-.655-.219-.437-1.53-.437-2.186.219-4.153-4.369-5.246-7.864-5.028-.218-.874 0-1.967.219-2.623 2.621-5.246 9.829-5.464 12.232-1.311.656 1.311.874 2.841.656 4.153 0 .656-.219 1.53-.437 2.186.655.656.437.874.218 1.311z" fill="#6361C2"/><path d="M388.159 650.256c.437 1.748-1.092 3.716-3.058 3.934-1.31-.656-.218-2.186.437-3.279.437-1.093 2.184-1.967 2.621-.655z" fill="#FFC0A1"/><path d="M371.34 681.514c0-.219.218-.219.218-.437 3.932-3.716 5.461-7.432 6.772-19.017l1.092.437s.655 15.52-4.369 22.514c-.873 1.312-4.368 1.312-5.46 1.312-.219 0-.219-.219-.219-.219l1.966-4.59z" fill="#6361C2"/></g><defs><linearGradient id="paint0_linear_586_4633" x1="57.067" y1="633.153" x2="24.789" y2="633.153" gradientUnits="userSpaceOnUse"><stop stop-color="#EBE6E2"/><stop offset="1" stop-color="#FCF7F1"/></linearGradient><linearGradient id="paint1_linear_586_4633" x1="39.003" y1="624.74" x2="19.556" y2="624.74" gradientUnits="userSpaceOnUse"><stop stop-color="#EBE6E2"/><stop offset="1" stop-color="#FCF7F1"/></linearGradient><clipPath id="clip0_586_4633"><path fill="#fff" transform="matrix(-1 0 0 1 564 .83)" d="M0 0h564v762H0z"/></clipPath></defs></svg>