<svg width="16" height="16" fill="none" xmlns="http://www.w3.org/2000/svg"><path d="M10.886 9.588c-.227-.227-.598-.227-.804 0l-1.297 1.277c-.597.597-1.936.185-3.007-.886-1.07-1.071-1.483-2.43-.885-3.007l1.276-1.277c.227-.226.227-.597 0-.803L3.225 1.927c-.227-.227-.598-.227-.804 0l-.865.865C-.174 4.5.98 8.455 4.151 11.606c3.151 3.15 7.105 4.325 8.835 2.595l.865-.865c.226-.227.226-.598 0-.803l-2.966-2.945zM7.714 1a7.04 7.04 0 017.043 7.043M7.714 3.327a4.729 4.729 0 014.716 4.716" stroke="#fff" stroke-width="1.5" stroke-miterlimit="10" stroke-linecap="round" stroke-linejoin="round"/></svg>