<svg width="28" height="29" fill="none" xmlns="http://www.w3.org/2000/svg"><path d="M21.21 10.208l.54-.54a2.294 2.294 0 113.245 3.244l-.54.54m-3.245-3.244s.068 1.15 1.081 2.163c1.014 1.014 2.163 1.081 2.163 1.081m-3.244-3.244l-4.97 4.97c-.337.338-.506.506-.65.691-.171.22-.318.456-.437.707-.101.212-.177.438-.327.89l-.482 1.446-.156.468m10.266-5.928l-4.97 4.971c-.337.337-.506.505-.691.65-.22.17-.456.317-.707.436-.212.102-.438.177-.89.328l-1.446.482-.468.156m0 0l-.468.155a.619.619 0 01-.782-.782l.156-.468m1.094 1.095l-1.094-1.095" stroke="#fff" stroke-width="1.5"/><path d="M9.333 15.996h2.917M9.333 11.33h7.583m-7.583 9.333h1.75M23.133 4.53c-1.367-1.367-3.567-1.367-7.966-1.367h-2.334c-4.4 0-6.6 0-7.966 1.366C3.5 5.896 3.5 8.096 3.5 12.496v4.667c0 4.4 0 6.6 1.367 7.966 1.367 1.367 3.567 1.367 7.966 1.367h2.334c4.4 0 6.6 0 7.966-1.367 1.1-1.1 1.315-2.74 1.357-5.633" stroke="#fff" stroke-width="1.5" stroke-linecap="round"/></svg>