<svg width="2001" height="1126" fill="none" xmlns="http://www.w3.org/2000/svg"><path d="M50.398 50.138H1290.4c82.84 0 150 67.157 150 150V421.59c0 82.842-67.16 150-150 150H468.898c-82.842 0-150 67.157-150 150v203.548c0 82.842 67.158 150.002 150 150.002H1950.4" stroke="#C89937" stroke-width="100" stroke-linecap="round"/><path d="M50.398 50.138H1290.4c82.84 0 150 67.157 150 150V421.59c0 82.842-67.16 150-150 150H468.898c-82.842 0-150 67.157-150 150v203.548c0 82.842 67.158 150.002 150 150.002H1950.4" stroke="#FFFBF1" stroke-width="5" stroke-linecap="round"/></svg>