<svg width="33" height="34" fill="none" xmlns="http://www.w3.org/2000/svg"><g clip-path="url(#clip0_586_5425)"><path d="M17.938 1.5a1.937 1.937 0 10-3.875 0v.818c-4.212.754-7.75 3.919-7.75 8.224 0 4.952 4.683 8.396 9.687 8.396 3.556 0 5.813 2.34 5.813 4.52 0 2.181-2.257 4.521-5.813 4.521-3.556 0-5.813-2.34-5.813-4.52a1.938 1.938 0 00-3.874 0c0 4.304 3.538 7.469 7.75 8.223v.818a1.938 1.938 0 003.874 0v-.818c4.212-.754 7.75-3.919 7.75-8.224 0-4.952-4.683-8.395-9.687-8.395-3.556 0-5.813-2.34-5.813-4.521S12.444 6.02 16 6.02c3.556 0 5.813 2.34 5.813 4.52a1.938 1.938 0 003.875 0c0-4.304-3.539-7.469-7.75-8.223V1.5z" fill="#561E05"/></g><defs><clipPath id="clip0_586_5425"><path fill="#fff" d="M0 0h33v34H0z"/></clipPath></defs></svg>