<svg width="48" height="48" fill="none" xmlns="http://www.w3.org/2000/svg"><path d="M28.5 38h3c4.635-.01 7.115-.125 8.945-1.347a8.001 8.001 0 002.207-2.208C44 32.428 44 29.62 44 24.001c0-5.618 0-8.427-1.348-10.445a8.001 8.001 0 00-2.207-2.207c-1.83-1.222-4.31-1.336-8.945-1.347h-3V18H30a6 6 0 010 12h-1.5v8zm-9 0v-8H18a6 6 0 010-12h1.5v-7.998h-3c-4.635.01-7.115.125-8.945 1.347a8 8 0 00-2.207 2.207C4 15.574 4 18.383 4 24.001s0 8.427 1.348 10.444a8 8 0 002.207 2.208c1.83 1.222 4.31 1.336 8.945 1.347h3z" fill="#561E05"/><path opacity=".5" d="M19.5 38h9V10h-9v28z" fill="#561E05"/></svg>