<svg width="1728" height="183" fill="none" xmlns="http://www.w3.org/2000/svg"><g clip-path="url(#clip0_802_274)"><path fill-rule="evenodd" clip-rule="evenodd" d="M-.001 1.235V709.42H1728V50.716c-31.82-11.217-73.48-7.02-111.48 14.354-24.43 13.736-43.57 32.444-55.98 52.825-12.83-6.655-31.61-10.854-52.54-10.854-35.86 0-65.41 12.323-69.51 28.21-36.62-21.645-82.28-26.057-123.56-9.492-39.23-63.347-121.97-84.959-187.71-47.983-23.4 13.158-41.57 32.009-53.76 53.828-35.98-11.699-76.609-8.869-112.243 11.172-18.281 10.281-33.373 24.037-44.911 39.969-2.929-12.597-7.673-24.992-14.33-36.83-37.855-67.309-123.261-91.1-190.759-53.139-23.812 13.392-42.215 32.681-54.399 54.993-20.56-34.16-61.208-49.321-98.302-38.898-26.852-28.42-70.605-36.06-106.317-15.976-14.656 8.242-26.025 20.067-33.622 33.753-25.93-21.973-63.369-27.404-95.306-11.557-37.389-46.36-103.974-60.267-157.755-30.02a126.116 126.116 0 00-11.705 7.455 190.412 190.412 0 00-4.098-7.695C115.754 24.448 54.153-7.998-.001 1.235zM1479.36 168.248c-.65.444-1.27.896-1.88 1.355-.56-.722-1.12-1.437-1.69-2.145 1.17.278 2.36.542 3.57.79z" fill="#fff"/></g><defs><clipPath id="clip0_802_274"><path fill="#fff" d="M0 0h1728v183H0z"/></clipPath></defs></svg>