<svg width="260" height="222" fill="none" xmlns="http://www.w3.org/2000/svg"><g clip-path="url(#clip0_601_145)"><path d="M153.525 173.411h-18.207v-14.668h18.207c3.729 0 3.536.055 4.033 3.208.636 4.14.774 4.14 0 8.253-.608 3.152-.304 3.207-4.033 3.207z" fill="#F2CE90"/><path d="M153.525 158.743h-18.207v14.668h12.985c-.773-12.173 5.222-14.668 5.222-14.668z" fill="#FFE4E7"/><path d="M156.067 173.439c1.22 0 2.21-3.29 2.21-7.348s-.99-7.348-2.21-7.348c-1.221 0-2.211 3.29-2.211 7.348s.99 7.348 2.211 7.348z" fill="#FFF6F7"/><path d="M157.171 166.091c0 3.18-.497 5.73-1.105 5.73s-1.105-2.577-1.105-5.73c0-3.153.497-5.73 1.105-5.73.608-.028 1.105 2.549 1.105 5.73z" fill="#EEA916"/><path d="M153.525 47.95h-18.207v14.67h18.207c3.729 0 3.536-.055 4.033-3.208.636-4.14.774-4.14 0-8.253-.608-3.153-.304-3.207-4.033-3.207z" fill="#F2CE90"/><path d="M153.525 62.619h-18.207V47.95h12.985c-.773 12.173 5.222 14.668 5.222 14.668z" fill="#FFE4E7"/><path d="M156.067 62.618c1.22 0 2.21-3.29 2.21-7.347 0-4.058-.99-7.348-2.21-7.348-1.221 0-2.211 3.29-2.211 7.348s.99 7.347 2.211 7.347z" fill="#FFF6F7"/><path d="M157.171 55.27c0-3.18-.497-5.73-1.105-5.73s-1.105 2.578-1.105 5.73c0 3.154.497 5.73 1.105 5.73.608.028 1.105-2.549 1.105-5.73zM14.78 110.681L.636 76.053a1.138 1.138 0 011.05-1.563h4.31c5.028 0 9.78 2.221 12.985 6.06l25.196 30.103H14.781v.028z" fill="#EEA916"/><path d="M14.78 110.681L.636 145.308a1.138 1.138 0 001.05 1.563h4.31c5.028 0 9.78-2.221 12.985-6.059l25.196-30.104H14.781v-.027z" fill="#EEA916"/><path d="M171.261 96.917l-47.187 4.086-17.239-85.377-2.349-11.68a3.21 3.21 0 013.15-3.866 11.37 11.37 0 019.78 5.566l14.698 24.895 39.147 66.376z" fill="#A27922"/><path d="M119.902 11.328l44.342 87.405 6.852-.603-39.148-66.377-12.046-20.425z" fill="#866318"/><path d="M120.067 81.098l4.034 19.904 47.187-4.085-8.316-14.092c-14.421-.85-30.279-1.398-42.905-1.727z" fill="#846117"/><path d="M132.114 30.54c-10.416-10.912-19.864-14.064-25.279-14.914l-2.349-11.68a3.21 3.21 0 013.15-3.866 11.37 11.37 0 019.78 5.566l14.698 24.895z" fill="#EEA916"/><path d="M171.261 124.444l-47.188-4.085-17.267 85.377-2.348 11.68c-.414 2.001 1.133 3.865 3.177 3.865a11.37 11.37 0 009.78-5.565l14.698-24.895 39.148-66.377z" fill="#A27922"/><path d="M119.902 212.46l44.342-87.406 6.852.603-39.148 66.377-12.046 20.426z" fill="#866318"/><path d="M120.067 140.264l4.034-19.905 47.187 4.085-8.343 14.092c-14.394.85-30.252 1.371-42.878 1.728z" fill="#846117"/><path d="M132.113 190.821c-10.416 10.912-19.864 14.065-25.279 14.915l-2.349 11.679c-.414 2.002 1.133 3.866 3.178 3.866 4.006 0 7.735-2.111 9.78-5.565l14.67-24.895z" fill="#EEA916"/><path d="M229.444 91.05c-22.35-6.031-72.438-3.865-111.973-1.782-64.012 3.373-102.663 13.435-113.99 16.752A4.833 4.833 0 000 110.681c0 2.138 1.409 4.03 3.481 4.661 11.3 3.317 49.978 13.379 113.99 16.752 39.562 2.083 90.783 4.277 113.134-1.782 19.643-5.319 29.561-9.322 29.395-19.631.166-10.309-10.913-14.312-30.556-19.63z" fill="#412E04"/><path d="M228.09 95.355c-2.541-.85-4.475 2.357-2.486 4.14 3.868 3.481 7.874 7.868 7.874 11.186 0 3.317-4.006 7.704-7.874 11.186-1.989 1.782-.083 4.99 2.486 4.14 7.128-2.358 11.631-7.019 14.201-10.583 2.044-2.824 2.072-6.608.027-9.432-2.541-3.591-7.072-8.28-14.228-10.638z" fill="#C3A064"/><path d="M38.622 113.231H9.862c-1.409 0-2.569-1.152-2.569-2.55s1.16-2.55 2.57-2.55h28.76c1.408 0 2.569 1.152 2.569 2.55s-1.16 2.55-2.57 2.55z" fill="#F2CE90"/></g><defs><clipPath id="clip0_601_145"><path fill="#fff" transform="translate(0 .08)" d="M0 0h260v221.201H0z"/></clipPath></defs></svg>