<svg width="370" height="338" fill="none" xmlns="http://www.w3.org/2000/svg"><g clip-path="url(#clip0_586_5390)"><path d="M161.5 39c0-21.5-17.5-39-39-39s-39 17.5-39 39v208.2h78" fill="#8E3212"/><path d="M84 281.5h286v-238H84v238z" fill="#C74518"/><path d="M123.838 125.333c0-4.005-3.403-7.333-7.641-7.333H77.803c-4.238 0-7.64 3.266-7.64 7.333v164.264a2 2 0 01-2 2h-6.798c-1.712 0-2.633 2.009-1.515 3.305l35.635 41.341a2 2 0 003.03 0l35.635-41.341c1.118-1.296.197-3.305-1.515-3.305h-6.797a2 2 0 01-2-2V125.333z" fill="#DE653B"/><path d="M70 181h54v-12H70v12zm0 21h54v-12H70v12zm0 21h54v-12H70v12z" fill="#EC7850"/><path d="M83.5 130.1c0 6.6 5.3 11.9 11.9 11.9 6.5 0 11.9-5.3 11.9-11.9 0-6.5 5.1-12.1 11.7-12.1H83.6v12.1h-.1z" fill="#8E3212"/><path d="M0 39C0 17.5 17.5 0 39 0h83.601c-21.5 0-39 17.5-39 39v91.1c0 6.6 5.3 11.9 11.9 11.9H11.9C5.4 142 0 136.7 0 130.1V39z" fill="#DE653B"/><path d="M9.1 75c0 17.4 14.1 31.5 31.5 31.5S72.1 92.4 72.1 75 58 43.5 40.6 43.5 9.1 57.6 9.1 75z" fill="#fff"/></g><defs><clipPath id="clip0_586_5390"><path fill="#fff" transform="rotate(-180 185 169)" d="M0 0h370v338H0z"/></clipPath></defs></svg>