<svg width="48" height="48" fill="none" xmlns="http://www.w3.org/2000/svg"><circle cx="23.999" cy="12" r="8" fill="#561E05"/><path opacity=".5" d="M36.188 30.062C35.338 30 34.296 30 33 30c-3.3 0-4.95 0-5.975 1.025C26 32.05 26 33.7 26 37c0 2.333 0 3.84.362 4.887A24.64 24.64 0 0124 42c-7.732 0-14-3.582-14-8s6.268-8 14-8c5.227 0 9.785 1.637 12.19 4.062z" fill="#561E05"/><path fill-rule="evenodd" clip-rule="evenodd" d="M32.999 44c-3.3 0-4.95 0-5.975-1.025C26 41.95 26 40.3 26 37s0-4.95 1.025-5.975C28.05 30 29.7 30 33 30s4.95 0 5.975 1.025C39.999 32.05 39.999 33.7 39.999 37s0 4.95-1.025 5.975C37.949 44 36.299 44 32.999 44zm1.167-10.111a1.167 1.167 0 00-2.334 0v1.944h-1.944a1.167 1.167 0 000 2.334h1.944v1.944a1.167 1.167 0 102.334 0v-1.944h1.944a1.167 1.167 0 000-2.334h-1.944V33.89z" fill="#561E05"/></svg>