<svg width="48" height="48" fill="none" xmlns="http://www.w3.org/2000/svg"><path d="M16.845 41.236C20.355 43.08 22.112 44 24 44V24L5.276 14.146a6.373 6.373 0 00-.081.134C4 16.309 4 18.834 4 23.883v.234c0 5.05 0 7.575 1.195 9.604 1.195 2.029 3.346 3.158 7.65 5.416l4 2.1z" fill="#561E05"/><path opacity=".7" d="M35.155 8.863l-4-2.1C27.643 4.922 25.888 4 23.999 4c-1.888 0-3.644.921-7.155 2.764l-4 2.099c-4.208 2.208-6.358 3.337-7.569 5.282L24 24l18.724-9.855c-1.21-1.945-3.36-3.074-7.568-5.282z" fill="#561E05"/><path opacity=".5" d="M42.805 14.28a6.636 6.636 0 00-.081-.134L24 24v20c1.889 0 3.644-.921 7.155-2.764l4-2.099c4.304-2.258 6.455-3.387 7.65-5.416C44 31.69 44 29.167 44 24.117v-.234c0-5.05 0-7.574-1.195-9.603z" fill="#561E05"/><path d="M12.647 8.968l.198-.105 2.987-1.567 18.202 10.01 8.047-4.023c.276.312.515.64.725.997a6.8 6.8 0 01.691 1.65l-7.996 3.997V26a1.5 1.5 0 11-3 0v-4.573l-7 3.5v18.881A6.124 6.124 0 0124 44c-.498 0-.987-.064-1.5-.192v-18.88l-17.996-9a6.807 6.807 0 01.691-1.65c.21-.355.45-.684.725-.996L24 22.323l6.773-3.386-18.126-9.97z" fill="#561E05"/></svg>