<svg width="48" height="48" fill="none" xmlns="http://www.w3.org/2000/svg"><path opacity=".5" d="M8.165 21.788c.877-4.681 1.316-7.022 2.983-8.405C12.814 12 15.196 12 19.959 12h8.082c4.763 0 7.145 0 8.811 1.383 1.667 1.383 2.106 3.724 2.983 8.405l1.5 8c1.235 6.584 1.852 9.876.053 12.044C39.588 44 36.239 44 29.54 44H18.459c-6.698 0-10.047 0-11.847-2.168-1.799-2.168-1.182-5.46.053-12.044l1.5-8z" fill="#561E05"/><path d="M19.499 10a4.5 4.5 0 119 0v2c1.132 0 2.124.004 3 .03V10a7.5 7.5 0 10-15 0v2.03c.876-.026 1.868-.03 3-.03v-2zM31.17 23.937a1.5 1.5 0 10-2.342-1.874l-6.954 8.69-2.814-2.814a1.5 1.5 0 10-2.122 2.122l4 4a1.5 1.5 0 002.232-.124l8-10z" fill="#561E05"/></svg>