<svg width="370" height="339" fill="none" xmlns="http://www.w3.org/2000/svg"><g clip-path="url(#clip0_812_577)"><path d="M161.5 39.833c0-21.5-17.5-39-39-39s-39 17.5-39 39v208.2h78" fill="#4A0E06"/><path d="M84 278.833h286v-238H84v238z" fill="#61170C"/><path d="M123.838 126.166c0-4.005-3.403-7.333-7.641-7.333H77.803c-4.238 0-7.64 3.266-7.64 7.333V290.43a2 2 0 01-2 2h-6.798c-1.712 0-2.633 2.009-1.515 3.305l35.635 41.341a2 2 0 003.03 0l35.635-41.341c1.118-1.296.197-3.305-1.515-3.305h-6.797a2 2 0 01-2-2V126.166z" fill="#85281B"/><path d="M70 181.833h54v-12H70v12zm0 21h54v-12H70v12zm0 21h54v-12H70v12z" fill="#912718"/><path d="M83.5 130.933c0 6.6 5.3 11.9 11.9 11.9 6.5 0 11.9-5.299 11.9-11.899 0-6.5 5.1-12.101 11.7-12.101H83.6v12.1h-.1z" fill="#4A0E06"/><path d="M0 39.834c0-21.5 17.5-39 39-39h83.601c-21.5 0-39 17.5-39 39v91.099c0 6.6 5.3 11.9 11.9 11.9H11.9c-6.5 0-11.9-5.3-11.9-11.9v-91.1z" fill="#85281B"/><path d="M9.1 75.834c0 17.4 14.1 31.499 31.5 31.499s31.5-14.1 31.5-31.5-14.1-31.5-31.5-31.5-31.5 14.1-31.5 31.5z" fill="#fff"/></g><defs><clipPath id="clip0_812_577"><path fill="#fff" transform="rotate(-180 185 169.417)" d="M0 0h370v338H0z"/></clipPath></defs></svg>