<svg width="371" height="338" fill="none" xmlns="http://www.w3.org/2000/svg"><g clip-path="url(#clip0_812_577)"><path d="M161.968 39c0-21.5-17.5-39-39-39s-39 17.5-39 39v208.2h78" fill="#9C580B"/><path d="M84.468 278h286V40h-286v238z" fill="#C46F0E"/><path d="M124.306 125.333c0-4.005-3.403-7.333-7.641-7.333H78.27c-4.237 0-7.64 3.266-7.64 7.333v164.264a2 2 0 01-2 2h-6.798c-1.711 0-2.632 2.009-1.515 3.305l35.636 41.341a2 2 0 003.03 0l35.635-41.341c1.117-1.296.197-3.305-1.515-3.305h-6.797a2 2 0 01-2-2V125.333z" fill="#FF9012"/><path d="M70.468 181h54v-12h-54v12zm0 21h54v-12h-54v12zm0 21h54v-12h-54v12z" fill="#FFA142"/><path d="M83.968 130.1c0 6.6 5.3 11.9 11.9 11.9 6.5 0 11.9-5.3 11.9-11.9 0-6.5 5.1-12.1 11.7-12.1h-35.4v12.1h-.1z" fill="#9C580B"/><path d="M.468 39c0-21.5 17.5-39 39-39h83.6c-21.5 0-39 17.5-39 39v91.1c0 6.6 5.3 11.9 11.9 11.9h-83.6c-6.5 0-11.9-5.3-11.9-11.9V39z" fill="#FF9012"/><path d="M9.567 75c0 17.4 14.1 31.5 31.5 31.5s31.5-14.1 31.5-31.5-14.1-31.5-31.5-31.5-31.5 14.1-31.5 31.5z" fill="#fff"/></g><defs><clipPath id="clip0_812_577"><path fill="#fff" transform="rotate(-180 185.234 169)" d="M0 0h370v338H0z"/></clipPath></defs></svg>