<svg width="12" height="12" fill="none" xmlns="http://www.w3.org/2000/svg"><path d="M5.7 1.872c.185-.568.277-.853.416-.93a.4.4 0 01.385 0c.14.077.232.362.416.93l.737 2.268c.052.16.078.239.126.298a.4.4 0 00.161.117c.071.028.155.028.322.028h2.385c.598 0 .897 0 1.012.108a.4.4 0 01.12.367c-.03.155-.272.33-.756.682l-1.93 1.402c-.135.098-.202.147-.243.212a.4.4 0 00-.061.19c-.005.075.02.155.072.314l.737 2.268c.185.569.277.853.21.996a.4.4 0 01-.312.227c-.157.02-.399-.156-.883-.508L6.685 9.44c-.135-.099-.203-.148-.277-.167a.4.4 0 00-.199 0c-.074.02-.141.068-.276.167l-1.93 1.401c-.484.352-.725.527-.883.508a.4.4 0 01-.311-.227c-.068-.143.025-.428.21-.996l.736-2.268c.052-.16.078-.239.073-.315a.4.4 0 00-.061-.19c-.041-.064-.109-.113-.244-.21L1.593 5.74c-.483-.35-.724-.527-.754-.682a.4.4 0 01.12-.367c.115-.108.414-.108 1.012-.108h2.384c.168 0 .251 0 .322-.028a.4.4 0 00.161-.117c.049-.06.075-.139.126-.298L5.7 1.872z" fill="#EBB441" fill-opacity=".5"/></svg>